<svg fill="none" height="182" viewBox="0 0 113 182" width="113" xmlns="http://www.w3.org/2000/svg" xmlns:xlink="http://www.w3.org/1999/xlink"><filter id="a" color-interpolation-filters="sRGB" filterUnits="userSpaceOnUse" height="51" width="51" x="31" y="78"><feFlood flood-opacity="0" result="BackgroundImageFix"/><feColorMatrix in="SourceAlpha" type="matrix" values="0 0 0 0 0 0 0 0 0 0 0 0 0 0 0 0 0 0 127 0"/><feOffset dy="4"/><feGaussianBlur stdDeviation="2"/><feColorMatrix type="matrix" values="0 0 0 0 0 0 0 0 0 0 0 0 0 0 0 0 0 0 0.25 0"/><feBlend in2="BackgroundImageFix" mode="normal" result="effect1_dropShadow"/><feBlend in="SourceGraphic" in2="effect1_dropShadow" mode="normal" result="shape"/></filter><linearGradient id="b" gradientUnits="userSpaceOnUse" x1="41.0377" x2="68.4281" y1="74.9075" y2="115.993"><stop offset="0" stop-color="#fff"/><stop offset="1" stop-color="#fff" stop-opacity="0"/></linearGradient><g stroke="#000"><path d="m1 7h111v127c0 8.284-6.716 15-15 15h-81c-8.28427 0-15-6.716-15-15z" stroke-width="2"/><path d="m11.5 53c0-6.9036 5.5964-12.5 12.5-12.5h66c6.9036 0 12.5 5.5964 12.5 12.5v122.5h-91z" fill="#fff" stroke-width="3"/><path d="m10 56h94" stroke-width="2"/></g><rect fill="#000" height="2" rx="1" width="19" x="47" y="48"/><path d="m2 0h109v11h-109z" fill="#fff"/><path d="m13 171h88v11h-88z" fill="#fff"/><g filter="url(#a)"><rect fill="#fff" height="42" rx="21" stroke="url(#b)" width="42" x="35.5" y="78.5"/><g fill="#000"><path d="m56.648 81.8069c-4.7639 0-9.247 1.8585-12.6148 5.2263-3.3678 3.3684-5.2263 7.8514-5.2263 12.6148 0 4.763 1.8585 9.247 5.2263 12.615s7.8514 5.226 12.6148 5.226c4.7633 0 9.2469-1.858 12.6147-5.226 3.3679-3.368 5.2263-7.852 5.2263-12.615 0-4.7634-1.8584-9.247-5.2263-12.6148-3.3678-3.3678-7.8508-5.2263-12.6147-5.2263zm0 36.8211c-5.067 0-9.8387-1.973-13.4191-5.561-3.5877-3.58-5.56-8.351-5.56-13.419 0-5.0676 1.9723-9.8387 5.5605-13.4191 3.5805-3.5877 8.3516-5.56 13.4186-5.56s9.8387 1.9723 13.4191 5.5605c3.5882 3.5882 5.5605 8.3516 5.5605 13.4191s-1.9723 9.8385-5.5605 13.4195c-3.5804 3.587-8.3516 5.56-13.4191 5.56z"/><path d="m47.6107 96.4072c.665 0 1.2612.1471 1.788.4408.5267.2936.9392.7039 1.2373 1.2306.2981.5268.4468 1.1358.4468 1.8269 0 .6915-.1487 1.3025-.4468 1.8335s-.7106.944-1.2373 1.237c-.5268.294-1.123.441-1.788.441-.4924 0-.9437-.095-1.3539-.285-.4103-.19-.7578-.467-1.0431-.83v3.55h-1.244v-9.3798h1.1918v1.0885c.2765-.3802.6262-.6672 1.0497-.8615.423-.1948.8893-.292 1.3995-.292zm-.1038 5.9218c.4407 0 .8354-.102 1.1857-.305.3497-.203.6261-.488.8293-.856.2026-.367.3047-.788.3047-1.2631s-.1015-.8959-.3047-1.2634c-.2032-.3669-.4796-.65-.8293-.8487-.3498-.1988-.745-.2981-1.1857-.2981-.4319 0-.8227.1016-1.1724.3047-.3497.2032-.6262.4857-.8294.8488-.2031.363-.3047.7816-.3047 1.2567s.0994.8961.2981 1.2631c.1987.368.4752.653.8293.856.3542.203.7472.305 1.1791.305z"/><path d="m56.6531 103.417c-.6822 0-1.2956-.151-1.8396-.454s-.9698-.719-1.2762-1.25c-.3069-.531-.4602-1.134-.4602-1.8075 0-.6739.1533-1.2762.4602-1.8074.3064-.5313.7322-.9459 1.2762-1.244s1.1574-.4469 1.8396-.4469c.6823 0 1.2934.1488 1.8335.4469.5396.2981.9632.7127 1.2696 1.244.3064.5312.4602 1.1335.4602 1.8074 0 .6735-.1533 1.2765-.4602 1.8075-.307.531-.73.948-1.2696 1.25-.5395.303-1.1507.454-1.8335.454zm0-1.088c.4408 0 .8355-.102 1.1857-.305.3498-.203.624-.488.8227-.856.1987-.367.2981-.788.2981-1.2631s-.0994-.8959-.2981-1.2634c-.1987-.3669-.4729-.65-.8227-.8487-.3497-.1988-.7449-.2981-1.1857-.2981-.4407 0-.8354.0993-1.1857.2981-.3497.1987-.6261.4818-.8293.8487-.2032.3675-.3047.7883-.3047 1.2634s.1015.8961.3047 1.2631c.2026.368.4796.653.8293.856.3503.203.7455.305 1.1857.305z"/><path d="m69.325 93.7251v9.6139h-1.1918v-1.089c-.2764.381-.6261.67-1.0497.869-.4235.198-.8898.298-1.3994.298-.665 0-1.2612-.147-1.788-.441s-.9392-.706-1.2373-1.237c-.2981-.532-.4469-1.143-.4469-1.8339 0-.6911.1488-1.3001.4469-1.8269s.7105-.937 1.2373-1.2306c.5268-.2937 1.123-.4408 1.788-.4408.4924 0 .9459.0927 1.3606.2787.4146.1859.7599.4602 1.0363.8226v-3.783zm-3.5371 8.6039c.4319 0 .8249-.102 1.179-.305.3542-.203.6306-.488.8294-.855.1987-.367.2981-.789.2981-1.2639 0-.4752-.0994-.896-.2981-1.2634-.1988-.367-.4752-.6501-.8294-.8488-.3541-.1987-.7471-.2981-1.179-.2981-.4408 0-.836.0994-1.1857.2981s-.6262.4818-.8293.8488c-.2032.3674-.3048.7882-.3048 1.2634 0 .4749.1016.8969.3048 1.2639.2026.367.4796.652.8293.855s.7449.305 1.1857.305z"/></g></g><path d="m40.2006 142v-6.34h-2.56v-.71h5.95v.71h-2.56v6.34zm5.6039.09c-.7667 0-1.3733-.223-1.82-.67-.4467-.453-.67-1.067-.67-1.84 0-.5.1-.94.3-1.32.2-.387.4733-.683.82-.89.3533-.213.76-.32 1.22-.32.66 0 1.1767.213 1.55.64.3733.42.56 1 .56 1.74v.31h-3.66c.0267.553.1867.977.48 1.27.2933.287.7.43 1.22.43.2933 0 .5733-.043.84-.13.2667-.093.52-.243.76-.45l.28.57c-.22.207-.5.37-.84.49-.34.113-.6867.17-1.04.17zm-.13-4.44c-.46 0-.8233.143-1.09.43s-.4233.663-.47 1.13h2.95c-.02-.493-.15-.877-.39-1.15-.2333-.273-.5667-.41-1-.41zm4.7523 4.44c-.4934 0-.8667-.143-1.12-.43-.2467-.293-.37-.717-.37-1.27v-5.44h.81v5.38c0 .713.2833 1.07.85 1.07.1666 0 .3166-.02.45-.06l-.02.68c-.2067.047-.4067.07-.6.07zm3.6101 0c-.7667 0-1.3733-.223-1.82-.67-.4467-.453-.67-1.067-.67-1.84 0-.5.1-.94.3-1.32.2-.387.4733-.683.82-.89.3533-.213.76-.32 1.22-.32.66 0 1.1767.213 1.55.64.3733.42.56 1 .56 1.74v.31h-3.66c.0267.553.1867.977.48 1.27.2933.287.7.43 1.22.43.2933 0 .5733-.043.84-.13.2667-.093.52-.243.76-.45l.28.57c-.22.207-.5.37-.84.49-.34.113-.6867.17-1.04.17zm-.13-4.44c-.46 0-.8233.143-1.09.43s-.4233.663-.47 1.13h2.95c-.02-.493-.15-.877-.39-1.15-.2333-.273-.5667-.41-1-.41zm-.31-1.16 1.03-2.02h.87l-1.32 2.02zm3.8323 5.51v-4.23h-.96v-.63h.96v-.17c0-.647.16-1.137.48-1.47.3266-.333.8266-.52 1.5-.56l.39-.02.07.62-.46.03c-.4134.033-.7134.157-.9.37-.18.213-.27.523-.27.93v.27h1.4v.63h-1.4v4.23zm4.9533.09c-.4733 0-.8833-.103-1.23-.31-.3466-.207-.6166-.497-.81-.87-.1866-.38-.28-.827-.28-1.34s.0934-.957.28-1.33c.1934-.38.4634-.673.81-.88.3467-.207.7567-.31 1.23-.31.4667 0 .8734.103 1.22.31.3534.207.6234.5.81.88.1934.373.29.817.29 1.33s-.0966.96-.29 1.34c-.1866.373-.4566.663-.81.87-.3466.207-.7533.31-1.22.31zm0-.65c.4534 0 .8167-.16 1.09-.48.2734-.327.41-.79.41-1.39 0-.607-.1366-1.07-.41-1.39-.2733-.32-.6366-.48-1.09-.48-.46 0-.8266.16-1.1.48-.2666.32-.4.783-.4 1.39 0 .6.1334 1.063.4 1.39.2734.32.64.48 1.1.48zm3.5367.56v-4.86h.79v.83c.16-.307.3866-.537.68-.69.2933-.153.6233-.23.99-.23 1.1533 0 1.73.64 1.73 1.92v3.03h-.81v-2.98c0-.453-.09-.783-.27-.99-.1734-.213-.4534-.32-.84-.32-.4467 0-.8034.14-1.07.42-.26.273-.39.64-.39 1.1v2.77zm7.7036.09c-.4734 0-.8834-.103-1.23-.31-.3467-.207-.6167-.497-.81-.87-.1867-.38-.28-.827-.28-1.34s.0933-.957.28-1.33c.1933-.38.4633-.673.81-.88.3466-.207.7566-.31 1.23-.31.4666 0 .8733.103 1.22.31.3533.207.6233.5.81.88.1933.373.29.817.29 1.33s-.0967.96-.29 1.34c-.1867.373-.4567.663-.81.87-.3467.207-.7534.31-1.22.31zm0-.65c.4533 0 .8166-.16 1.09-.48.2733-.327.41-.79.41-1.39 0-.607-.1367-1.07-.41-1.39-.2734-.32-.6367-.48-1.09-.48-.46 0-.8267.16-1.1.48-.2667.32-.4.783-.4 1.39 0 .6.1333 1.063.4 1.39.2733.32.64.48 1.1.48zm-26.9067 12.66c-.3534 0-.67-.067-.95-.2-.2734-.14-.49-.327-.65-.56-.1534-.233-.23-.497-.23-.79 0-.36.0933-.643.28-.85.1866-.213.49-.367.91-.46s.9833-.14 1.69-.14h.35v-.21c0-.333-.0734-.573-.22-.72-.1467-.147-.3934-.22-.74-.22-.2734 0-.5534.043-.84.13-.2867.08-.5767.207-.87.38l-.36-.85c.1733-.12.3766-.223.61-.31.24-.093.49-.163.75-.21.2666-.053.5166-.08.75-.08.7133 0 1.2433.167 1.59.5.3466.327.52.837.52 1.53v2.96h-1.17v-.78c-.1134.273-.2934.49-.54.65-.2467.153-.54.23-.88.23zm.26-.86c.3266 0 .5966-.113.81-.34.22-.227.33-.513.33-.86v-.22h-.34c-.6267 0-1.0634.05-1.31.15-.24.093-.36.267-.36.52 0 .22.0766.4.23.54.1533.14.3666.21.64.21zm3.5587-5.18v-1.22h1.4v1.22zm-1.06 7.87-.09-.91.46-.05c.5133-.06.77-.36.77-.9v-4.96h1.25v4.8c0 .653-.15 1.133-.45 1.44-.3.313-.8033.497-1.51.55zm6.0979-1.83c-.5533 0-1.03-.103-1.43-.31s-.71-.5-.93-.88c-.2133-.38-.32-.83-.32-1.35 0-.507.1033-.95.31-1.33.2133-.38.5033-.677.87-.89.3733-.22.7967-.33 1.27-.33.6933 0 1.24.22 1.64.66.4067.44.61 1.04.61 1.8v.37h-3.5c.0933.873.5933 1.31 1.5 1.31.2733 0 .5467-.04.82-.12.2733-.087.5233-.22.75-.4l.35.84c-.2333.193-.5267.347-.88.46s-.7067.17-1.06.17zm-.18-4.24c-.3667 0-.6633.113-.89.34s-.3633.533-.41.92h2.46c-.0267-.407-.14-.717-.34-.93-.1933-.22-.4667-.33-.82-.33zm3.1899 4.14v-4.89h1.22v.76c.1667-.28.39-.493.67-.64.2867-.147.6067-.22.96-.22 1.1534 0 1.73.67 1.73 2.01v2.98h-1.25v-2.92c0-.38-.0733-.657-.22-.83-.14-.173-.36-.26-.66-.26-.3666 0-.66.117-.88.35-.2133.227-.32.53-.32.91v2.75zm8.0796.1c-.5066 0-.9466-.103-1.32-.31-.3733-.207-.6633-.5-.87-.88-.2066-.387-.31-.84-.31-1.36s.1034-.97.31-1.35c.2067-.38.4967-.673.87-.88.3734-.207.8134-.31 1.32-.31.5067 0 .9467.103 1.32.31.3734.207.6634.5.87.88.2067.38.31.83.31 1.35s-.1033.973-.31 1.36c-.2066.38-.4966.673-.87.88-.3733.207-.8133.31-1.32.31zm0-.95c.3734 0 .6734-.133.9-.4.2267-.273.34-.673.34-1.2 0-.533-.1133-.93-.34-1.19-.2266-.267-.5266-.4-.9-.4-.3733 0-.6733.133-.9.4-.2266.26-.34.657-.34 1.19 0 .527.1134.927.34 1.2.2267.267.5267.4.9.4z" fill="#000" fill-opacity=".7"/><path d="m40.2006 15v-6.34h-2.56v-.71h5.95v.71h-2.56v6.34zm5.6039.09c-.7667 0-1.3733-.2233-1.82-.67-.4467-.4533-.67-1.0667-.67-1.84 0-.5.1-.94.3-1.32.2-.3867.4733-.6833.82-.89.3533-.2133.76-.32 1.22-.32.66 0 1.1767.2133 1.55.64.3733.42.56 1 .56 1.74v.31h-3.66c.0267.5533.1867.9767.48 1.27.2933.2867.7.43 1.22.43.2933 0 .5733-.0433.84-.13.2667-.0933.52-.2433.76-.45l.28.57c-.22.2067-.5.37-.84.49-.34.1133-.6867.17-1.04.17zm-.13-4.44c-.46 0-.8233.1433-1.09.43s-.4233.6633-.47 1.13h2.95c-.02-.4933-.15-.8767-.39-1.15-.2333-.2733-.5667-.41-1-.41zm4.7523 4.44c-.4934 0-.8667-.1433-1.12-.43-.2467-.2933-.37-.7167-.37-1.27v-5.44h.81v5.38c0 .7133.2833 1.07.85 1.07.1666 0 .3166-.02.45-.06l-.02.68c-.2067.0467-.4067.07-.6.07zm3.6101 0c-.7667 0-1.3733-.2233-1.82-.67-.4467-.4533-.67-1.0667-.67-1.84 0-.5.1-.94.3-1.32.2-.3867.4733-.6833.82-.89.3533-.2133.76-.32 1.22-.32.66 0 1.1767.2133 1.55.64.3733.42.56 1 .56 1.74v.31h-3.66c.0267.5533.1867.9767.48 1.27.2933.2867.7.43 1.22.43.2933 0 .5733-.0433.84-.13.2667-.0933.52-.2433.76-.45l.28.57c-.22.2067-.5.37-.84.49-.34.1133-.6867.17-1.04.17zm-.13-4.44c-.46 0-.8233.1433-1.09.43s-.4233.6633-.47 1.13h2.95c-.02-.4933-.15-.8767-.39-1.15-.2333-.2733-.5667-.41-1-.41zm-.31-1.16 1.03-2.02h.87l-1.32 2.02zm3.8323 5.51v-4.23h-.96v-.63h.96v-.17c0-.64667.16-1.13667.48-1.47.3266-.33333.8266-.52 1.5-.56l.39-.02.07.62-.46.03c-.4134.03333-.7134.15667-.9.37-.18.21333-.27.52333-.27.93v.27h1.4v.63h-1.4v4.23zm4.9533.09c-.4733 0-.8833-.1033-1.23-.31-.3466-.2067-.6166-.4967-.81-.87-.1866-.38-.28-.8267-.28-1.34s.0934-.9567.28-1.33c.1934-.38.4634-.6733.81-.88.3467-.2067.7567-.31 1.23-.31.4667 0 .8734.1033 1.22.31.3534.2067.6234.5.81.88.1934.3733.29.8167.29 1.33s-.0966.96-.29 1.34c-.1866.3733-.4566.6633-.81.87-.3466.2067-.7533.31-1.22.31zm0-.65c.4534 0 .8167-.16 1.09-.48.2734-.3267.41-.79.41-1.39 0-.6067-.1366-1.07-.41-1.39-.2733-.32-.6366-.48-1.09-.48-.46 0-.8266.16-1.1.48-.2666.32-.4.7833-.4 1.39 0 .6.1334 1.0633.4 1.39.2734.32.64.48 1.1.48zm3.5367.56v-4.86h.79v.83c.16-.3067.3866-.5367.68-.69.2933-.1533.6233-.23.99-.23 1.1533 0 1.73.64 1.73 1.92v3.03h-.81v-2.98c0-.4533-.09-.7833-.27-.99-.1734-.2133-.4534-.32-.84-.32-.4467 0-.8034.14-1.07.42-.26.2733-.39.64-.39 1.1v2.77zm7.7036.09c-.4734 0-.8834-.1033-1.23-.31-.3467-.2067-.6167-.4967-.81-.87-.1867-.38-.28-.8267-.28-1.34s.0933-.9567.28-1.33c.1933-.38.4633-.6733.81-.88.3466-.2067.7566-.31 1.23-.31.4666 0 .8733.1033 1.22.31.3533.2067.6233.5.81.88.1933.3733.29.8167.29 1.33s-.0967.96-.29 1.34c-.1867.3733-.4567.6633-.81.87-.3467.2067-.7534.31-1.22.31zm0-.65c.4533 0 .8166-.16 1.09-.48.2733-.3267.41-.79.41-1.39 0-.6067-.1367-1.07-.41-1.39-.2734-.32-.6367-.48-1.09-.48-.46 0-.8267.16-1.1.48-.2667.32-.4.7833-.4 1.39 0 .6.1333 1.0633.4 1.39.2733.32.64.48 1.1.48zm-30.924 14.36v-6.69h1.22v.78c.14-.2667.35-.48.63-.64.2867-.16.61-.24.97-.24.4267 0 .8.1033 1.12.31.3267.2067.58.5.76.88.18.3733.27.8233.27 1.35 0 .52-.09.9733-.27 1.36-.18.38-.43.6733-.75.88s-.6966.31-1.13.31c-.3466 0-.66-.0733-.94-.22-.2733-.1533-.4833-.3567-.63-.61v2.53zm2.47-2.65c.3734 0 .6734-.1333.9-.4.2267-.2733.34-.6733.34-1.2 0-.5333-.1133-.93-.34-1.19-.2266-.2667-.5266-.4-.9-.4-.3733 0-.6733.1333-.9.4-.2266.26-.34.6567-.34 1.19 0 .5267.1134.9267.34 1.2.2267.2667.5267.4.9.4zm3.5261.85v-4.89h1.22v.86c.24-.58.7534-.9 1.54-.96l.38-.03.08 1.06-.72.07c-.82.08-1.23.5-1.23 1.26v2.63zm6.0679.1c-.5067 0-.9467-.1033-1.32-.31s-.6633-.5-.87-.88c-.2067-.3867-.31-.84-.31-1.36s.1033-.97.31-1.35.4967-.6733.87-.88.8133-.31 1.32-.31.9467.1033 1.32.31.6633.5.87.88.31.83.31 1.35-.1033.9733-.31 1.36c-.2067.38-.4967.6733-.87.88s-.8133.31-1.32.31zm0-.95c.3733 0 .6733-.1333.9-.4.2267-.2733.34-.6733.34-1.2 0-.5333-.1133-.93-.34-1.19-.2267-.2667-.5267-.4-.9-.4s-.6733.1333-.9.4c-.2267.26-.34.6567-.34 1.19 0 .5267.1133.9267.34 1.2.2267.2667.5267.4.9.4zm3.5317 2.65v-6.69h1.22v.78c.14-.2667.35-.48.63-.64.2867-.16.61-.24.97-.24.4267 0 .8.1033 1.12.31.3267.2067.58.5.76.88.18.3733.27.8233.27 1.35 0 .52-.09.9733-.27 1.36-.18.38-.43.6733-.75.88s-.6966.31-1.13.31c-.3466 0-.66-.0733-.94-.22-.2733-.1533-.4833-.3567-.63-.61v2.53zm2.47-2.65c.3734 0 .6734-.1333.9-.4.2267-.2733.34-.6733.34-1.2 0-.5333-.1133-.93-.34-1.19-.2266-.2667-.5266-.4-.9-.4-.3733 0-.6733.1333-.9.4-.2266.26-.34.6567-.34 1.19 0 .5267.1134.9267.34 1.2.2267.2667.5267.4.9.4zm3.4461-5.09v-1.22h1.4v1.22zm.08 5.94v-4.89h1.25v4.89zm4.7789.1c-.5067 0-.9467-.1033-1.32-.31-.3734-.2067-.6634-.5-.87-.88-.2067-.3867-.31-.84-.31-1.36s.1033-.97.31-1.35c.2066-.38.4966-.6733.87-.88.3733-.2067.8133-.31 1.32-.31.5066 0 .9466.1033 1.32.31.3733.2067.6633.5.87.88.2066.38.31.83.31 1.35s-.1034.9733-.31 1.36c-.2067.38-.4967.6733-.87.88-.3734.2067-.8134.31-1.32.31zm0-.95c.3733 0 .6733-.1333.9-.4.2266-.2733.34-.6733.34-1.2 0-.5333-.1134-.93-.34-1.19-.2267-.2667-.5267-.4-.9-.4-.3734 0-.6734.1333-.9.4-.2267.26-.34.6567-.34 1.19 0 .5267.1133.9267.34 1.2.2266.2667.5266.4.9.4z" fill="#000" fill-opacity=".7"/></svg>