<svg width="113" height="182" viewBox="0 0 113 182" fill="none" xmlns="http://www.w3.org/2000/svg">
<path d="M1 7H112V134C112 142.284 105.284 149 97 149H16C7.71573 149 1 142.284 1 134V7Z" stroke="black" stroke-width="2"/>
<path d="M11.5 53C11.5 46.0964 17.0964 40.5 24 40.5H90C96.9036 40.5 102.5 46.0964 102.5 53V175.5H11.5V53Z" fill="white" stroke="black" stroke-width="3"/>
<line x1="10" y1="56" x2="104" y2="56" stroke="black" stroke-width="2"/>
<rect x="47" y="48" width="19" height="2" rx="1" fill="black"/>
<rect x="2" width="109" height="11" fill="white"/>
<rect x="13" y="171" width="88" height="11" fill="white"/>
<g filter="url(#filter0_d)">
<rect x="35.5" y="78.5" width="42" height="42" rx="21" fill="white" stroke="url(#paint0_linear)"/>
<path d="M56.648 81.8069C51.8841 81.8069 47.401 83.6654 44.0332 87.0332C40.6654 90.4016 38.8069 94.8846 38.8069 99.648C38.8069 104.411 40.6654 108.895 44.0332 112.263C47.401 115.631 51.8846 117.489 56.648 117.489C61.4113 117.489 65.8949 115.631 69.2627 112.263C72.6306 108.895 74.489 104.411 74.489 99.648C74.489 94.8846 72.6306 90.401 69.2627 87.0332C65.8949 83.6654 61.4119 81.8069 56.648 81.8069ZM56.648 118.628C51.581 118.628 46.8093 116.655 43.2289 113.067C39.6412 109.487 37.6689 104.716 37.6689 99.648C37.6689 94.5804 39.6412 89.8093 43.2294 86.2289C46.8099 82.6412 51.581 80.6689 56.648 80.6689C61.715 80.6689 66.4867 82.6412 70.0671 86.2294C73.6553 89.8176 75.6276 94.581 75.6276 99.6485C75.6276 104.716 73.6553 109.487 70.0671 113.068C66.4867 116.655 61.7155 118.628 56.648 118.628Z" fill="black"/>
<path d="M47.6107 96.4072C48.2757 96.4072 48.8719 96.5543 49.3987 96.848C49.9254 97.1416 50.3379 97.5519 50.636 98.0786C50.9341 98.6054 51.0828 99.2144 51.0828 99.9055C51.0828 100.597 50.9341 101.208 50.636 101.739C50.3379 102.27 49.9254 102.683 49.3987 102.976C48.8719 103.27 48.2757 103.417 47.6107 103.417C47.1183 103.417 46.667 103.322 46.2568 103.132C45.8465 102.942 45.499 102.665 45.2137 102.302V105.852H43.9697V96.4722H45.1615V97.5607C45.438 97.1805 45.7877 96.8935 46.2112 96.6992C46.6342 96.5044 47.1005 96.4072 47.6107 96.4072ZM47.5069 102.329C47.9476 102.329 48.3423 102.227 48.6926 102.024C49.0423 101.821 49.3187 101.536 49.5219 101.168C49.7245 100.801 49.8266 100.38 49.8266 99.9049C49.8266 99.4298 49.7251 99.009 49.5219 98.6415C49.3187 98.2746 49.0423 97.9915 48.6926 97.7928C48.3428 97.594 47.9476 97.4947 47.5069 97.4947C47.075 97.4947 46.6842 97.5963 46.3345 97.7994C45.9848 98.0026 45.7083 98.2851 45.5051 98.6482C45.302 99.0112 45.2004 99.4298 45.2004 99.9049C45.2004 100.38 45.2998 100.801 45.4985 101.168C45.6972 101.536 45.9737 101.821 46.3278 102.024C46.682 102.227 47.075 102.329 47.5069 102.329Z" fill="black"/>
<path d="M56.6531 103.417C55.9709 103.417 55.3575 103.266 54.8135 102.963C54.2695 102.66 53.8437 102.244 53.5373 101.713C53.2304 101.182 53.0771 100.579 53.0771 99.9055C53.0771 99.2316 53.2304 98.6293 53.5373 98.0981C53.8437 97.5668 54.2695 97.1522 54.8135 96.8541C55.3575 96.556 55.9709 96.4072 56.6531 96.4072C57.3354 96.4072 57.9465 96.556 58.4866 96.8541C59.0262 97.1522 59.4498 97.5668 59.7562 98.0981C60.0626 98.6293 60.2164 99.2316 60.2164 99.9055C60.2164 100.579 60.0631 101.182 59.7562 101.713C59.4492 102.244 59.0262 102.661 58.4866 102.963C57.9471 103.266 57.3359 103.417 56.6531 103.417ZM56.6531 102.329C57.0939 102.329 57.4886 102.227 57.8388 102.024C58.1886 101.821 58.4628 101.536 58.6615 101.168C58.8602 100.801 58.9596 100.38 58.9596 99.9049C58.9596 99.4298 58.8602 99.009 58.6615 98.6415C58.4628 98.2746 58.1886 97.9915 57.8388 97.7928C57.4891 97.594 57.0939 97.4947 56.6531 97.4947C56.2124 97.4947 55.8177 97.594 55.4674 97.7928C55.1177 97.9915 54.8413 98.2746 54.6381 98.6415C54.4349 99.009 54.3334 99.4298 54.3334 99.9049C54.3334 100.38 54.4349 100.801 54.6381 101.168C54.8407 101.536 55.1177 101.821 55.4674 102.024C55.8177 102.227 56.2129 102.329 56.6531 102.329Z" fill="black"/>
<path d="M69.325 93.7251V103.339H68.1332V102.25C67.8568 102.631 67.5071 102.92 67.0835 103.119C66.66 103.317 66.1937 103.417 65.6841 103.417C65.0191 103.417 64.4229 103.27 63.8961 102.976C63.3693 102.682 62.9569 102.27 62.6588 101.739C62.3607 101.207 62.2119 100.596 62.2119 99.9051C62.2119 99.214 62.3607 98.605 62.6588 98.0782C62.9569 97.5514 63.3693 97.1412 63.8961 96.8476C64.4229 96.5539 65.0191 96.4068 65.6841 96.4068C66.1765 96.4068 66.63 96.4995 67.0447 96.6855C67.4593 96.8714 67.8046 97.1457 68.081 97.5081V93.7251H69.325ZM65.7879 102.329C66.2198 102.329 66.6128 102.227 66.9669 102.024C67.3211 101.821 67.5975 101.536 67.7963 101.169C67.995 100.802 68.0944 100.38 68.0944 99.9051C68.0944 99.4299 67.995 99.0091 67.7963 98.6417C67.5975 98.2747 67.3211 97.9916 66.9669 97.7929C66.6128 97.5942 66.2198 97.4948 65.7879 97.4948C65.3471 97.4948 64.9519 97.5942 64.6022 97.7929C64.2525 97.9916 63.976 98.2747 63.7729 98.6417C63.5697 99.0091 63.4681 99.4299 63.4681 99.9051C63.4681 100.38 63.5697 100.802 63.7729 101.169C63.9755 101.536 64.2525 101.821 64.6022 102.024C64.9519 102.227 65.3471 102.329 65.7879 102.329Z" fill="black"/>
</g>
<path d="M40.2006 142V135.66H37.6406V134.95H43.5906V135.66H41.0306V142H40.2006ZM45.8045 142.09C45.0378 142.09 44.4312 141.867 43.9845 141.42C43.5378 140.967 43.3145 140.353 43.3145 139.58C43.3145 139.08 43.4145 138.64 43.6145 138.26C43.8145 137.873 44.0878 137.577 44.4345 137.37C44.7878 137.157 45.1945 137.05 45.6545 137.05C46.3145 137.05 46.8312 137.263 47.2045 137.69C47.5778 138.11 47.7645 138.69 47.7645 139.43V139.74H44.1045C44.1312 140.293 44.2912 140.717 44.5845 141.01C44.8778 141.297 45.2845 141.44 45.8045 141.44C46.0978 141.44 46.3778 141.397 46.6445 141.31C46.9112 141.217 47.1645 141.067 47.4045 140.86L47.6845 141.43C47.4645 141.637 47.1845 141.8 46.8445 141.92C46.5045 142.033 46.1578 142.09 45.8045 142.09ZM45.6745 137.65C45.2145 137.65 44.8512 137.793 44.5845 138.08C44.3178 138.367 44.1612 138.743 44.1145 139.21H47.0645C47.0445 138.717 46.9145 138.333 46.6745 138.06C46.4412 137.787 46.1078 137.65 45.6745 137.65ZM50.4268 142.09C49.9334 142.09 49.5601 141.947 49.3068 141.66C49.0601 141.367 48.9368 140.943 48.9368 140.39V134.95H49.7468V140.33C49.7468 141.043 50.0301 141.4 50.5968 141.4C50.7634 141.4 50.9134 141.38 51.0468 141.34L51.0268 142.02C50.8201 142.067 50.6201 142.09 50.4268 142.09ZM54.0369 142.09C53.2702 142.09 52.6636 141.867 52.2169 141.42C51.7702 140.967 51.5469 140.353 51.5469 139.58C51.5469 139.08 51.6469 138.64 51.8469 138.26C52.0469 137.873 52.3202 137.577 52.6669 137.37C53.0202 137.157 53.4269 137.05 53.8869 137.05C54.5469 137.05 55.0636 137.263 55.4369 137.69C55.8102 138.11 55.9969 138.69 55.9969 139.43V139.74H52.3369C52.3636 140.293 52.5236 140.717 52.8169 141.01C53.1102 141.297 53.5169 141.44 54.0369 141.44C54.3302 141.44 54.6102 141.397 54.8769 141.31C55.1436 141.217 55.3969 141.067 55.6369 140.86L55.9169 141.43C55.6969 141.637 55.4169 141.8 55.0769 141.92C54.7369 142.033 54.3902 142.09 54.0369 142.09ZM53.9069 137.65C53.4469 137.65 53.0836 137.793 52.8169 138.08C52.5502 138.367 52.3936 138.743 52.3469 139.21H55.2969C55.2769 138.717 55.1469 138.333 54.9069 138.06C54.6736 137.787 54.3402 137.65 53.9069 137.65ZM53.5969 136.49L54.6269 134.47H55.4969L54.1769 136.49H53.5969ZM57.4292 142V137.77H56.4692V137.14H57.4292V136.97C57.4292 136.323 57.5892 135.833 57.9092 135.5C58.2358 135.167 58.7358 134.98 59.4092 134.94L59.7992 134.92L59.8692 135.54L59.4092 135.57C58.9958 135.603 58.6958 135.727 58.5092 135.94C58.3292 136.153 58.2392 136.463 58.2392 136.87V137.14H59.6392V137.77H58.2392V142H57.4292ZM62.3825 142.09C61.9092 142.09 61.4992 141.987 61.1525 141.78C60.8059 141.573 60.5359 141.283 60.3425 140.91C60.1559 140.53 60.0625 140.083 60.0625 139.57C60.0625 139.057 60.1559 138.613 60.3425 138.24C60.5359 137.86 60.8059 137.567 61.1525 137.36C61.4992 137.153 61.9092 137.05 62.3825 137.05C62.8492 137.05 63.2559 137.153 63.6025 137.36C63.9559 137.567 64.2259 137.86 64.4125 138.24C64.6059 138.613 64.7025 139.057 64.7025 139.57C64.7025 140.083 64.6059 140.53 64.4125 140.91C64.2259 141.283 63.9559 141.573 63.6025 141.78C63.2559 141.987 62.8492 142.09 62.3825 142.09ZM62.3825 141.44C62.8359 141.44 63.1992 141.28 63.4725 140.96C63.7459 140.633 63.8825 140.17 63.8825 139.57C63.8825 138.963 63.7459 138.5 63.4725 138.18C63.1992 137.86 62.8359 137.7 62.3825 137.7C61.9225 137.7 61.5559 137.86 61.2825 138.18C61.0159 138.5 60.8825 138.963 60.8825 139.57C60.8825 140.17 61.0159 140.633 61.2825 140.96C61.5559 141.28 61.9225 141.44 62.3825 141.44ZM65.9192 142V137.14H66.7092V137.97C66.8692 137.663 67.0958 137.433 67.3892 137.28C67.6825 137.127 68.0125 137.05 68.3792 137.05C69.5325 137.05 70.1092 137.69 70.1092 138.97V142H69.2992V139.02C69.2992 138.567 69.2092 138.237 69.0292 138.03C68.8558 137.817 68.5758 137.71 68.1892 137.71C67.7425 137.71 67.3858 137.85 67.1192 138.13C66.8592 138.403 66.7292 138.77 66.7292 139.23V142H65.9192ZM73.6228 142.09C73.1494 142.09 72.7394 141.987 72.3928 141.78C72.0461 141.573 71.7761 141.283 71.5828 140.91C71.3961 140.53 71.3028 140.083 71.3028 139.57C71.3028 139.057 71.3961 138.613 71.5828 138.24C71.7761 137.86 72.0461 137.567 72.3928 137.36C72.7394 137.153 73.1494 137.05 73.6228 137.05C74.0894 137.05 74.4961 137.153 74.8428 137.36C75.1961 137.567 75.4661 137.86 75.6528 138.24C75.8461 138.613 75.9428 139.057 75.9428 139.57C75.9428 140.083 75.8461 140.53 75.6528 140.91C75.4661 141.283 75.1961 141.573 74.8428 141.78C74.4961 141.987 74.0894 142.09 73.6228 142.09ZM73.6228 141.44C74.0761 141.44 74.4394 141.28 74.7128 140.96C74.9861 140.633 75.1228 140.17 75.1228 139.57C75.1228 138.963 74.9861 138.5 74.7128 138.18C74.4394 137.86 74.0761 137.7 73.6228 137.7C73.1628 137.7 72.7961 137.86 72.5228 138.18C72.2561 138.5 72.1228 138.963 72.1228 139.57C72.1228 140.17 72.2561 140.633 72.5228 140.96C72.7961 141.28 73.1628 141.44 73.6228 141.44ZM46.7161 154.1C46.3627 154.1 46.0461 154.033 45.7661 153.9C45.4927 153.76 45.2761 153.573 45.1161 153.34C44.9627 153.107 44.8861 152.843 44.8861 152.55C44.8861 152.19 44.9794 151.907 45.1661 151.7C45.3527 151.487 45.6561 151.333 46.0761 151.24C46.4961 151.147 47.0594 151.1 47.7661 151.1H48.1161V150.89C48.1161 150.557 48.0427 150.317 47.8961 150.17C47.7494 150.023 47.5027 149.95 47.1561 149.95C46.8827 149.95 46.6027 149.993 46.3161 150.08C46.0294 150.16 45.7394 150.287 45.4461 150.46L45.0861 149.61C45.2594 149.49 45.4627 149.387 45.6961 149.3C45.9361 149.207 46.1861 149.137 46.4461 149.09C46.7127 149.037 46.9627 149.01 47.1961 149.01C47.9094 149.01 48.4394 149.177 48.7861 149.51C49.1327 149.837 49.3061 150.347 49.3061 151.04V154H48.1361V153.22C48.0227 153.493 47.8427 153.71 47.5961 153.87C47.3494 154.023 47.0561 154.1 46.7161 154.1ZM46.9761 153.24C47.3027 153.24 47.5727 153.127 47.7861 152.9C48.0061 152.673 48.1161 152.387 48.1161 152.04V151.82H47.7761C47.1494 151.82 46.7127 151.87 46.4661 151.97C46.2261 152.063 46.1061 152.237 46.1061 152.49C46.1061 152.71 46.1827 152.89 46.3361 153.03C46.4894 153.17 46.7027 153.24 46.9761 153.24ZM50.5348 148.06V146.84H51.9348V148.06H50.5348ZM49.4748 155.93L49.3848 155.02L49.8448 154.97C50.3581 154.91 50.6148 154.61 50.6148 154.07V149.11H51.8648V153.91C51.8648 154.563 51.7148 155.043 51.4148 155.35C51.1148 155.663 50.6115 155.847 49.9048 155.9L49.4748 155.93ZM55.5727 154.1C55.0194 154.1 54.5427 153.997 54.1427 153.79C53.7427 153.583 53.4327 153.29 53.2127 152.91C52.9994 152.53 52.8927 152.08 52.8927 151.56C52.8927 151.053 52.996 150.61 53.2027 150.23C53.416 149.85 53.706 149.553 54.0727 149.34C54.446 149.12 54.8694 149.01 55.3427 149.01C56.036 149.01 56.5827 149.23 56.9827 149.67C57.3894 150.11 57.5927 150.71 57.5927 151.47V151.84H54.0927C54.186 152.713 54.686 153.15 55.5927 153.15C55.866 153.15 56.1394 153.11 56.4127 153.03C56.686 152.943 56.936 152.81 57.1627 152.63L57.5127 153.47C57.2794 153.663 56.986 153.817 56.6327 153.93C56.2794 154.043 55.926 154.1 55.5727 154.1ZM55.3927 149.86C55.026 149.86 54.7294 149.973 54.5027 150.2C54.276 150.427 54.1394 150.733 54.0927 151.12H56.5527C56.526 150.713 56.4127 150.403 56.2127 150.19C56.0194 149.97 55.746 149.86 55.3927 149.86ZM58.5826 154V149.11H59.8026V149.87C59.9693 149.59 60.1926 149.377 60.4726 149.23C60.7593 149.083 61.0793 149.01 61.4326 149.01C62.586 149.01 63.1626 149.68 63.1626 151.02V154H61.9126V151.08C61.9126 150.7 61.8393 150.423 61.6926 150.25C61.5526 150.077 61.3326 149.99 61.0326 149.99C60.666 149.99 60.3726 150.107 60.1526 150.34C59.9393 150.567 59.8326 150.87 59.8326 151.25V154H58.5826ZM66.6622 154.1C66.1556 154.1 65.7156 153.997 65.3422 153.79C64.9689 153.583 64.6789 153.29 64.4722 152.91C64.2656 152.523 64.1622 152.07 64.1622 151.55C64.1622 151.03 64.2656 150.58 64.4722 150.2C64.6789 149.82 64.9689 149.527 65.3422 149.32C65.7156 149.113 66.1556 149.01 66.6622 149.01C67.1689 149.01 67.6089 149.113 67.9822 149.32C68.3556 149.527 68.6456 149.82 68.8522 150.2C69.0589 150.58 69.1622 151.03 69.1622 151.55C69.1622 152.07 69.0589 152.523 68.8522 152.91C68.6456 153.29 68.3556 153.583 67.9822 153.79C67.6089 153.997 67.1689 154.1 66.6622 154.1ZM66.6622 153.15C67.0356 153.15 67.3356 153.017 67.5622 152.75C67.7889 152.477 67.9022 152.077 67.9022 151.55C67.9022 151.017 67.7889 150.62 67.5622 150.36C67.3356 150.093 67.0356 149.96 66.6622 149.96C66.2889 149.96 65.9889 150.093 65.7622 150.36C65.5356 150.62 65.4222 151.017 65.4222 151.55C65.4222 152.077 65.5356 152.477 65.7622 152.75C65.9889 153.017 66.2889 153.15 66.6622 153.15Z" fill="black" fill-opacity="0.7"/>
<path d="M40.2006 15V8.66H37.6406V7.95H43.5906V8.66H41.0306V15H40.2006ZM45.8045 15.09C45.0378 15.09 44.4312 14.8667 43.9845 14.42C43.5378 13.9667 43.3145 13.3533 43.3145 12.58C43.3145 12.08 43.4145 11.64 43.6145 11.26C43.8145 10.8733 44.0878 10.5767 44.4345 10.37C44.7878 10.1567 45.1945 10.05 45.6545 10.05C46.3145 10.05 46.8312 10.2633 47.2045 10.69C47.5778 11.11 47.7645 11.69 47.7645 12.43V12.74H44.1045C44.1312 13.2933 44.2912 13.7167 44.5845 14.01C44.8778 14.2967 45.2845 14.44 45.8045 14.44C46.0978 14.44 46.3778 14.3967 46.6445 14.31C46.9112 14.2167 47.1645 14.0667 47.4045 13.86L47.6845 14.43C47.4645 14.6367 47.1845 14.8 46.8445 14.92C46.5045 15.0333 46.1578 15.09 45.8045 15.09ZM45.6745 10.65C45.2145 10.65 44.8512 10.7933 44.5845 11.08C44.3178 11.3667 44.1612 11.7433 44.1145 12.21H47.0645C47.0445 11.7167 46.9145 11.3333 46.6745 11.06C46.4412 10.7867 46.1078 10.65 45.6745 10.65ZM50.4268 15.09C49.9334 15.09 49.5601 14.9467 49.3068 14.66C49.0601 14.3667 48.9368 13.9433 48.9368 13.39V7.95H49.7468V13.33C49.7468 14.0433 50.0301 14.4 50.5968 14.4C50.7634 14.4 50.9134 14.38 51.0468 14.34L51.0268 15.02C50.8201 15.0667 50.6201 15.09 50.4268 15.09ZM54.0369 15.09C53.2702 15.09 52.6636 14.8667 52.2169 14.42C51.7702 13.9667 51.5469 13.3533 51.5469 12.58C51.5469 12.08 51.6469 11.64 51.8469 11.26C52.0469 10.8733 52.3202 10.5767 52.6669 10.37C53.0202 10.1567 53.4269 10.05 53.8869 10.05C54.5469 10.05 55.0636 10.2633 55.4369 10.69C55.8102 11.11 55.9969 11.69 55.9969 12.43V12.74H52.3369C52.3636 13.2933 52.5236 13.7167 52.8169 14.01C53.1102 14.2967 53.5169 14.44 54.0369 14.44C54.3302 14.44 54.6102 14.3967 54.8769 14.31C55.1436 14.2167 55.3969 14.0667 55.6369 13.86L55.9169 14.43C55.6969 14.6367 55.4169 14.8 55.0769 14.92C54.7369 15.0333 54.3902 15.09 54.0369 15.09ZM53.9069 10.65C53.4469 10.65 53.0836 10.7933 52.8169 11.08C52.5502 11.3667 52.3936 11.7433 52.3469 12.21H55.2969C55.2769 11.7167 55.1469 11.3333 54.9069 11.06C54.6736 10.7867 54.3402 10.65 53.9069 10.65ZM53.5969 9.49L54.6269 7.47H55.4969L54.1769 9.49H53.5969ZM57.4292 15V10.77H56.4692V10.14H57.4292V9.97C57.4292 9.32333 57.5892 8.83333 57.9092 8.5C58.2358 8.16667 58.7358 7.98 59.4092 7.94L59.7992 7.92L59.8692 8.54L59.4092 8.57C58.9958 8.60333 58.6958 8.72667 58.5092 8.94C58.3292 9.15333 58.2392 9.46333 58.2392 9.87V10.14H59.6392V10.77H58.2392V15H57.4292ZM62.3825 15.09C61.9092 15.09 61.4992 14.9867 61.1525 14.78C60.8059 14.5733 60.5359 14.2833 60.3425 13.91C60.1559 13.53 60.0625 13.0833 60.0625 12.57C60.0625 12.0567 60.1559 11.6133 60.3425 11.24C60.5359 10.86 60.8059 10.5667 61.1525 10.36C61.4992 10.1533 61.9092 10.05 62.3825 10.05C62.8492 10.05 63.2559 10.1533 63.6025 10.36C63.9559 10.5667 64.2259 10.86 64.4125 11.24C64.6059 11.6133 64.7025 12.0567 64.7025 12.57C64.7025 13.0833 64.6059 13.53 64.4125 13.91C64.2259 14.2833 63.9559 14.5733 63.6025 14.78C63.2559 14.9867 62.8492 15.09 62.3825 15.09ZM62.3825 14.44C62.8359 14.44 63.1992 14.28 63.4725 13.96C63.7459 13.6333 63.8825 13.17 63.8825 12.57C63.8825 11.9633 63.7459 11.5 63.4725 11.18C63.1992 10.86 62.8359 10.7 62.3825 10.7C61.9225 10.7 61.5559 10.86 61.2825 11.18C61.0159 11.5 60.8825 11.9633 60.8825 12.57C60.8825 13.17 61.0159 13.6333 61.2825 13.96C61.5559 14.28 61.9225 14.44 62.3825 14.44ZM65.9192 15V10.14H66.7092V10.97C66.8692 10.6633 67.0958 10.4333 67.3892 10.28C67.6825 10.1267 68.0125 10.05 68.3792 10.05C69.5325 10.05 70.1092 10.69 70.1092 11.97V15H69.2992V12.02C69.2992 11.5667 69.2092 11.2367 69.0292 11.03C68.8558 10.8167 68.5758 10.71 68.1892 10.71C67.7425 10.71 67.3858 10.85 67.1192 11.13C66.8592 11.4033 66.7292 11.77 66.7292 12.23V15H65.9192ZM73.6228 15.09C73.1494 15.09 72.7394 14.9867 72.3928 14.78C72.0461 14.5733 71.7761 14.2833 71.5828 13.91C71.3961 13.53 71.3028 13.0833 71.3028 12.57C71.3028 12.0567 71.3961 11.6133 71.5828 11.24C71.7761 10.86 72.0461 10.5667 72.3928 10.36C72.7394 10.1533 73.1494 10.05 73.6228 10.05C74.0894 10.05 74.4961 10.1533 74.8428 10.36C75.1961 10.5667 75.4661 10.86 75.6528 11.24C75.8461 11.6133 75.9428 12.0567 75.9428 12.57C75.9428 13.0833 75.8461 13.53 75.6528 13.91C75.4661 14.2833 75.1961 14.5733 74.8428 14.78C74.4961 14.9867 74.0894 15.09 73.6228 15.09ZM73.6228 14.44C74.0761 14.44 74.4394 14.28 74.7128 13.96C74.9861 13.6333 75.1228 13.17 75.1228 12.57C75.1228 11.9633 74.9861 11.5 74.7128 11.18C74.4394 10.86 74.0761 10.7 73.6228 10.7C73.1628 10.7 72.7961 10.86 72.5228 11.18C72.2561 11.5 72.1228 11.9633 72.1228 12.57C72.1228 13.17 72.2561 13.6333 72.5228 13.96C72.7961 14.28 73.1628 14.44 73.6228 14.44ZM42.6988 28.8V22.11H43.9188V22.89C44.0588 22.6233 44.2688 22.41 44.5488 22.25C44.8355 22.09 45.1588 22.01 45.5188 22.01C45.9455 22.01 46.3188 22.1133 46.6388 22.32C46.9655 22.5267 47.2188 22.82 47.3988 23.2C47.5788 23.5733 47.6688 24.0233 47.6688 24.55C47.6688 25.07 47.5788 25.5233 47.3988 25.91C47.2188 26.29 46.9688 26.5833 46.6488 26.79C46.3288 26.9967 45.9522 27.1 45.5188 27.1C45.1722 27.1 44.8588 27.0267 44.5788 26.88C44.3055 26.7267 44.0955 26.5233 43.9488 26.27V28.8H42.6988ZM45.1688 26.15C45.5422 26.15 45.8422 26.0167 46.0688 25.75C46.2955 25.4767 46.4088 25.0767 46.4088 24.55C46.4088 24.0167 46.2955 23.62 46.0688 23.36C45.8422 23.0933 45.5422 22.96 45.1688 22.96C44.7955 22.96 44.4955 23.0933 44.2688 23.36C44.0422 23.62 43.9288 24.0167 43.9288 24.55C43.9288 25.0767 44.0422 25.4767 44.2688 25.75C44.4955 26.0167 44.7955 26.15 45.1688 26.15ZM48.6949 27V22.11H49.9149V22.97C50.1549 22.39 50.6683 22.07 51.4549 22.01L51.8349 21.98L51.9149 23.04L51.1949 23.11C50.3749 23.19 49.9649 23.61 49.9649 24.37V27H48.6949ZM54.7628 27.1C54.2561 27.1 53.8161 26.9967 53.4428 26.79C53.0695 26.5833 52.7795 26.29 52.5728 25.91C52.3661 25.5233 52.2628 25.07 52.2628 24.55C52.2628 24.03 52.3661 23.58 52.5728 23.2C52.7795 22.82 53.0695 22.5267 53.4428 22.32C53.8161 22.1133 54.2561 22.01 54.7628 22.01C55.2695 22.01 55.7095 22.1133 56.0828 22.32C56.4561 22.5267 56.7461 22.82 56.9528 23.2C57.1595 23.58 57.2628 24.03 57.2628 24.55C57.2628 25.07 57.1595 25.5233 56.9528 25.91C56.7461 26.29 56.4561 26.5833 56.0828 26.79C55.7095 26.9967 55.2695 27.1 54.7628 27.1ZM54.7628 26.15C55.1361 26.15 55.4361 26.0167 55.6628 25.75C55.8895 25.4767 56.0028 25.0767 56.0028 24.55C56.0028 24.0167 55.8895 23.62 55.6628 23.36C55.4361 23.0933 55.1361 22.96 54.7628 22.96C54.3895 22.96 54.0895 23.0933 53.8628 23.36C53.6361 23.62 53.5228 24.0167 53.5228 24.55C53.5228 25.0767 53.6361 25.4767 53.8628 25.75C54.0895 26.0167 54.3895 26.15 54.7628 26.15ZM58.2945 28.8V22.11H59.5145V22.89C59.6545 22.6233 59.8645 22.41 60.1445 22.25C60.4312 22.09 60.7545 22.01 61.1145 22.01C61.5412 22.01 61.9145 22.1133 62.2345 22.32C62.5612 22.5267 62.8145 22.82 62.9945 23.2C63.1745 23.5733 63.2645 24.0233 63.2645 24.55C63.2645 25.07 63.1745 25.5233 62.9945 25.91C62.8145 26.29 62.5645 26.5833 62.2445 26.79C61.9245 26.9967 61.5479 27.1 61.1145 27.1C60.7679 27.1 60.4545 27.0267 60.1745 26.88C59.9012 26.7267 59.6912 26.5233 59.5445 26.27V28.8H58.2945ZM60.7645 26.15C61.1379 26.15 61.4379 26.0167 61.6645 25.75C61.8912 25.4767 62.0045 25.0767 62.0045 24.55C62.0045 24.0167 61.8912 23.62 61.6645 23.36C61.4379 23.0933 61.1379 22.96 60.7645 22.96C60.3912 22.96 60.0912 23.0933 59.8645 23.36C59.6379 23.62 59.5245 24.0167 59.5245 24.55C59.5245 25.0767 59.6379 25.4767 59.8645 25.75C60.0912 26.0167 60.3912 26.15 60.7645 26.15ZM64.2106 21.06V19.84H65.6106V21.06H64.2106ZM64.2906 27V22.11H65.5406V27H64.2906ZM69.0695 27.1C68.5628 27.1 68.1228 26.9967 67.7495 26.79C67.3761 26.5833 67.0861 26.29 66.8795 25.91C66.6728 25.5233 66.5695 25.07 66.5695 24.55C66.5695 24.03 66.6728 23.58 66.8795 23.2C67.0861 22.82 67.3761 22.5267 67.7495 22.32C68.1228 22.1133 68.5628 22.01 69.0695 22.01C69.5761 22.01 70.0161 22.1133 70.3895 22.32C70.7628 22.5267 71.0528 22.82 71.2595 23.2C71.4661 23.58 71.5695 24.03 71.5695 24.55C71.5695 25.07 71.4661 25.5233 71.2595 25.91C71.0528 26.29 70.7628 26.5833 70.3895 26.79C70.0161 26.9967 69.5761 27.1 69.0695 27.1ZM69.0695 26.15C69.4428 26.15 69.7428 26.0167 69.9695 25.75C70.1961 25.4767 70.3095 25.0767 70.3095 24.55C70.3095 24.0167 70.1961 23.62 69.9695 23.36C69.7428 23.0933 69.4428 22.96 69.0695 22.96C68.6961 22.96 68.3961 23.0933 68.1695 23.36C67.9428 23.62 67.8295 24.0167 67.8295 24.55C67.8295 25.0767 67.9428 25.4767 68.1695 25.75C68.3961 26.0167 68.6961 26.15 69.0695 26.15Z" fill="black" fill-opacity="0.7"/>
<defs>
<filter id="filter0_d" x="31" y="78" width="51" height="51" filterUnits="userSpaceOnUse" color-interpolation-filters="sRGB">
<feFlood flood-opacity="0" result="BackgroundImageFix"/>
<feColorMatrix in="SourceAlpha" type="matrix" values="0 0 0 0 0 0 0 0 0 0 0 0 0 0 0 0 0 0 127 0"/>
<feOffset dy="4"/>
<feGaussianBlur stdDeviation="2"/>
<feColorMatrix type="matrix" values="0 0 0 0 0 0 0 0 0 0 0 0 0 0 0 0 0 0 0.25 0"/>
<feBlend mode="normal" in2="BackgroundImageFix" result="effect1_dropShadow"/>
<feBlend mode="normal" in="SourceGraphic" in2="effect1_dropShadow" result="shape"/>
</filter>
<linearGradient id="paint0_linear" x1="41.0377" y1="74.9075" x2="68.4281" y2="115.993" gradientUnits="userSpaceOnUse">
<stop stop-color="white"/>
<stop offset="1" stop-color="white" stop-opacity="0"/>
</linearGradient>
</defs>
</svg>
