<svg width="113" height="252" viewBox="0 0 113 252" fill="none" xmlns="http://www.w3.org/2000/svg">
<path d="M1 7H112V134C112 142.284 105.284 149 97 149H16C7.71573 149 1 142.284 1 134V7Z" stroke="black" stroke-width="2"/>
<rect x="2" width="109" height="11" fill="white"/>
<path d="M41.2006 40V33.66H38.6406V32.95H44.5906V33.66H42.0306V40H41.2006ZM46.8045 40.09C46.0378 40.09 45.4312 39.8667 44.9845 39.42C44.5378 38.9667 44.3145 38.3533 44.3145 37.58C44.3145 37.08 44.4145 36.64 44.6145 36.26C44.8145 35.8733 45.0878 35.5767 45.4345 35.37C45.7878 35.1567 46.1945 35.05 46.6545 35.05C47.3145 35.05 47.8312 35.2633 48.2045 35.69C48.5778 36.11 48.7645 36.69 48.7645 37.43V37.74H45.1045C45.1312 38.2933 45.2912 38.7167 45.5845 39.01C45.8778 39.2967 46.2845 39.44 46.8045 39.44C47.0978 39.44 47.3778 39.3967 47.6445 39.31C47.9112 39.2167 48.1645 39.0667 48.4045 38.86L48.6845 39.43C48.4645 39.6367 48.1845 39.8 47.8445 39.92C47.5045 40.0333 47.1578 40.09 46.8045 40.09ZM46.6745 35.65C46.2145 35.65 45.8512 35.7933 45.5845 36.08C45.3178 36.3667 45.1612 36.7433 45.1145 37.21H48.0645C48.0445 36.7167 47.9145 36.3333 47.6745 36.06C47.4412 35.7867 47.1078 35.65 46.6745 35.65ZM51.4268 40.09C50.9334 40.09 50.5601 39.9467 50.3068 39.66C50.0601 39.3667 49.9368 38.9433 49.9368 38.39V32.95H50.7468V38.33C50.7468 39.0433 51.0301 39.4 51.5968 39.4C51.7634 39.4 51.9134 39.38 52.0468 39.34L52.0268 40.02C51.8201 40.0667 51.6201 40.09 51.4268 40.09ZM55.0369 40.09C54.2702 40.09 53.6636 39.8667 53.2169 39.42C52.7702 38.9667 52.5469 38.3533 52.5469 37.58C52.5469 37.08 52.6469 36.64 52.8469 36.26C53.0469 35.8733 53.3202 35.5767 53.6669 35.37C54.0202 35.1567 54.4269 35.05 54.8869 35.05C55.5469 35.05 56.0636 35.2633 56.4369 35.69C56.8102 36.11 56.9969 36.69 56.9969 37.43V37.74H53.3369C53.3636 38.2933 53.5236 38.7167 53.8169 39.01C54.1102 39.2967 54.5169 39.44 55.0369 39.44C55.3302 39.44 55.6102 39.3967 55.8769 39.31C56.1436 39.2167 56.3969 39.0667 56.6369 38.86L56.9169 39.43C56.6969 39.6367 56.4169 39.8 56.0769 39.92C55.7369 40.0333 55.3902 40.09 55.0369 40.09ZM54.9069 35.65C54.4469 35.65 54.0836 35.7933 53.8169 36.08C53.5502 36.3667 53.3936 36.7433 53.3469 37.21H56.2969C56.2769 36.7167 56.1469 36.3333 55.9069 36.06C55.6736 35.7867 55.3402 35.65 54.9069 35.65ZM54.5969 34.49L55.6269 32.47H56.4969L55.1769 34.49H54.5969ZM58.4292 40V35.77H57.4692V35.14H58.4292V34.97C58.4292 34.3233 58.5892 33.8333 58.9092 33.5C59.2358 33.1667 59.7358 32.98 60.4092 32.94L60.7992 32.92L60.8692 33.54L60.4092 33.57C59.9958 33.6033 59.6958 33.7267 59.5092 33.94C59.3292 34.1533 59.2392 34.4633 59.2392 34.87V35.14H60.6392V35.77H59.2392V40H58.4292ZM63.3825 40.09C62.9092 40.09 62.4992 39.9867 62.1525 39.78C61.8059 39.5733 61.5359 39.2833 61.3425 38.91C61.1559 38.53 61.0625 38.0833 61.0625 37.57C61.0625 37.0567 61.1559 36.6133 61.3425 36.24C61.5359 35.86 61.8059 35.5667 62.1525 35.36C62.4992 35.1533 62.9092 35.05 63.3825 35.05C63.8492 35.05 64.2559 35.1533 64.6025 35.36C64.9559 35.5667 65.2259 35.86 65.4125 36.24C65.6059 36.6133 65.7025 37.0567 65.7025 37.57C65.7025 38.0833 65.6059 38.53 65.4125 38.91C65.2259 39.2833 64.9559 39.5733 64.6025 39.78C64.2559 39.9867 63.8492 40.09 63.3825 40.09ZM63.3825 39.44C63.8359 39.44 64.1992 39.28 64.4725 38.96C64.7459 38.6333 64.8825 38.17 64.8825 37.57C64.8825 36.9633 64.7459 36.5 64.4725 36.18C64.1992 35.86 63.8359 35.7 63.3825 35.7C62.9225 35.7 62.5559 35.86 62.2825 36.18C62.0159 36.5 61.8825 36.9633 61.8825 37.57C61.8825 38.17 62.0159 38.6333 62.2825 38.96C62.5559 39.28 62.9225 39.44 63.3825 39.44ZM66.9192 40V35.14H67.7092V35.97C67.8692 35.6633 68.0958 35.4333 68.3892 35.28C68.6825 35.1267 69.0125 35.05 69.3792 35.05C70.5325 35.05 71.1092 35.69 71.1092 36.97V40H70.2992V37.02C70.2992 36.5667 70.2092 36.2367 70.0292 36.03C69.8558 35.8167 69.5758 35.71 69.1892 35.71C68.7425 35.71 68.3858 35.85 68.1192 36.13C67.8592 36.4033 67.7292 36.77 67.7292 37.23V40H66.9192ZM74.6228 40.09C74.1494 40.09 73.7394 39.9867 73.3928 39.78C73.0461 39.5733 72.7761 39.2833 72.5828 38.91C72.3961 38.53 72.3028 38.0833 72.3028 37.57C72.3028 37.0567 72.3961 36.6133 72.5828 36.24C72.7761 35.86 73.0461 35.5667 73.3928 35.36C73.7394 35.1533 74.1494 35.05 74.6228 35.05C75.0894 35.05 75.4961 35.1533 75.8428 35.36C76.1961 35.5667 76.4661 35.86 76.6528 36.24C76.8461 36.6133 76.9428 37.0567 76.9428 37.57C76.9428 38.0833 76.8461 38.53 76.6528 38.91C76.4661 39.2833 76.1961 39.5733 75.8428 39.78C75.4961 39.9867 75.0894 40.09 74.6228 40.09ZM74.6228 39.44C75.0761 39.44 75.4394 39.28 75.7128 38.96C75.9861 38.6333 76.1228 38.17 76.1228 37.57C76.1228 36.9633 75.9861 36.5 75.7128 36.18C75.4394 35.86 75.0761 35.7 74.6228 35.7C74.1628 35.7 73.7961 35.86 73.5228 36.18C73.2561 36.5 73.1228 36.9633 73.1228 37.57C73.1228 38.17 73.2561 38.6333 73.5228 38.96C73.7961 39.28 74.1628 39.44 74.6228 39.44ZM43.6988 53.8V47.11H44.9188V47.89C45.0588 47.6233 45.2688 47.41 45.5488 47.25C45.8355 47.09 46.1588 47.01 46.5188 47.01C46.9455 47.01 47.3188 47.1133 47.6388 47.32C47.9655 47.5267 48.2188 47.82 48.3988 48.2C48.5788 48.5733 48.6688 49.0233 48.6688 49.55C48.6688 50.07 48.5788 50.5233 48.3988 50.91C48.2188 51.29 47.9688 51.5833 47.6488 51.79C47.3288 51.9967 46.9522 52.1 46.5188 52.1C46.1722 52.1 45.8588 52.0267 45.5788 51.88C45.3055 51.7267 45.0955 51.5233 44.9488 51.27V53.8H43.6988ZM46.1688 51.15C46.5422 51.15 46.8422 51.0167 47.0688 50.75C47.2955 50.4767 47.4088 50.0767 47.4088 49.55C47.4088 49.0167 47.2955 48.62 47.0688 48.36C46.8422 48.0933 46.5422 47.96 46.1688 47.96C45.7955 47.96 45.4955 48.0933 45.2688 48.36C45.0422 48.62 44.9288 49.0167 44.9288 49.55C44.9288 50.0767 45.0422 50.4767 45.2688 50.75C45.4955 51.0167 45.7955 51.15 46.1688 51.15ZM49.6949 52V47.11H50.9149V47.97C51.1549 47.39 51.6683 47.07 52.4549 47.01L52.8349 46.98L52.9149 48.04L52.1949 48.11C51.3749 48.19 50.9649 48.61 50.9649 49.37V52H49.6949ZM55.7628 52.1C55.2561 52.1 54.8161 51.9967 54.4428 51.79C54.0695 51.5833 53.7795 51.29 53.5728 50.91C53.3661 50.5233 53.2628 50.07 53.2628 49.55C53.2628 49.03 53.3661 48.58 53.5728 48.2C53.7795 47.82 54.0695 47.5267 54.4428 47.32C54.8161 47.1133 55.2561 47.01 55.7628 47.01C56.2695 47.01 56.7095 47.1133 57.0828 47.32C57.4561 47.5267 57.7461 47.82 57.9528 48.2C58.1595 48.58 58.2628 49.03 58.2628 49.55C58.2628 50.07 58.1595 50.5233 57.9528 50.91C57.7461 51.29 57.4561 51.5833 57.0828 51.79C56.7095 51.9967 56.2695 52.1 55.7628 52.1ZM55.7628 51.15C56.1361 51.15 56.4361 51.0167 56.6628 50.75C56.8895 50.4767 57.0028 50.0767 57.0028 49.55C57.0028 49.0167 56.8895 48.62 56.6628 48.36C56.4361 48.0933 56.1361 47.96 55.7628 47.96C55.3895 47.96 55.0895 48.0933 54.8628 48.36C54.6361 48.62 54.5228 49.0167 54.5228 49.55C54.5228 50.0767 54.6361 50.4767 54.8628 50.75C55.0895 51.0167 55.3895 51.15 55.7628 51.15ZM59.2945 53.8V47.11H60.5145V47.89C60.6545 47.6233 60.8645 47.41 61.1445 47.25C61.4312 47.09 61.7545 47.01 62.1145 47.01C62.5412 47.01 62.9145 47.1133 63.2345 47.32C63.5612 47.5267 63.8145 47.82 63.9945 48.2C64.1745 48.5733 64.2645 49.0233 64.2645 49.55C64.2645 50.07 64.1745 50.5233 63.9945 50.91C63.8145 51.29 63.5645 51.5833 63.2445 51.79C62.9245 51.9967 62.5479 52.1 62.1145 52.1C61.7679 52.1 61.4545 52.0267 61.1745 51.88C60.9012 51.7267 60.6912 51.5233 60.5445 51.27V53.8H59.2945ZM61.7645 51.15C62.1379 51.15 62.4379 51.0167 62.6645 50.75C62.8912 50.4767 63.0045 50.0767 63.0045 49.55C63.0045 49.0167 62.8912 48.62 62.6645 48.36C62.4379 48.0933 62.1379 47.96 61.7645 47.96C61.3912 47.96 61.0912 48.0933 60.8645 48.36C60.6379 48.62 60.5245 49.0167 60.5245 49.55C60.5245 50.0767 60.6379 50.4767 60.8645 50.75C61.0912 51.0167 61.3912 51.15 61.7645 51.15ZM65.2106 46.06V44.84H66.6106V46.06H65.2106ZM65.2906 52V47.11H66.5406V52H65.2906ZM70.0695 52.1C69.5628 52.1 69.1228 51.9967 68.7495 51.79C68.3761 51.5833 68.0861 51.29 67.8795 50.91C67.6728 50.5233 67.5695 50.07 67.5695 49.55C67.5695 49.03 67.6728 48.58 67.8795 48.2C68.0861 47.82 68.3761 47.5267 68.7495 47.32C69.1228 47.1133 69.5628 47.01 70.0695 47.01C70.5761 47.01 71.0161 47.1133 71.3895 47.32C71.7628 47.5267 72.0528 47.82 72.2595 48.2C72.4661 48.58 72.5695 49.03 72.5695 49.55C72.5695 50.07 72.4661 50.5233 72.2595 50.91C72.0528 51.29 71.7628 51.5833 71.3895 51.79C71.0161 51.9967 70.5761 52.1 70.0695 52.1ZM70.0695 51.15C70.4428 51.15 70.7428 51.0167 70.9695 50.75C71.1961 50.4767 71.3095 50.0767 71.3095 49.55C71.3095 49.0167 71.1961 48.62 70.9695 48.36C70.7428 48.0933 70.4428 47.96 70.0695 47.96C69.6961 47.96 69.3961 48.0933 69.1695 48.36C68.9428 48.62 68.8295 49.0167 68.8295 49.55C68.8295 50.0767 68.9428 50.4767 69.1695 50.75C69.3961 51.0167 69.6961 51.15 70.0695 51.15Z" fill="black" fill-opacity="0.7"/>
<g filter="url(#filter0_d)">
<rect x="36.5" y="75.5" width="42" height="42" rx="21" fill="white" stroke="url(#paint0_linear)"/>
<path d="M57.648 78.8069C52.8841 78.8069 48.401 80.6654 45.0332 84.0332C41.6654 87.4016 39.8069 91.8846 39.8069 96.648C39.8069 101.411 41.6654 105.895 45.0332 109.263C48.401 112.631 52.8846 114.489 57.648 114.489C62.4113 114.489 66.8949 112.631 70.2627 109.263C73.6306 105.895 75.489 101.411 75.489 96.648C75.489 91.8846 73.6306 87.401 70.2627 84.0332C66.8949 80.6654 62.4119 78.8069 57.648 78.8069ZM57.648 115.628C52.581 115.628 47.8093 113.655 44.2289 110.067C40.6412 106.487 38.6689 101.716 38.6689 96.648C38.6689 91.5804 40.6412 86.8093 44.2294 83.2289C47.8099 79.6412 52.581 77.6689 57.648 77.6689C62.715 77.6689 67.4867 79.6412 71.0671 83.2294C74.6553 86.8176 76.6276 91.581 76.6276 96.6485C76.6276 101.716 74.6553 106.487 71.0671 110.068C67.4867 113.655 62.7155 115.628 57.648 115.628Z" fill="black"/>
<path d="M48.6107 93.4072C49.2757 93.4072 49.8719 93.5543 50.3987 93.848C50.9254 94.1416 51.3379 94.5519 51.636 95.0786C51.9341 95.6054 52.0828 96.2144 52.0828 96.9055C52.0828 97.5966 51.9341 98.2078 51.636 98.739C51.3379 99.2702 50.9254 99.6827 50.3987 99.9763C49.8719 100.27 49.2757 100.417 48.6107 100.417C48.1183 100.417 47.667 100.322 47.2568 100.132C46.8465 99.9419 46.499 99.6655 46.2137 99.3024V102.852H44.9697V93.4722H46.1615V94.5607C46.438 94.1805 46.7877 93.8935 47.2112 93.6992C47.6342 93.5044 48.1005 93.4072 48.6107 93.4072ZM48.5069 99.3285C48.9476 99.3285 49.3423 99.2269 49.6926 99.0238C50.0423 98.8212 50.3187 98.5358 50.5219 98.1684C50.7245 97.8014 50.8266 97.3801 50.8266 96.9049C50.8266 96.4298 50.7251 96.009 50.5219 95.6415C50.3187 95.2746 50.0423 94.9915 49.6926 94.7928C49.3428 94.594 48.9476 94.4947 48.5069 94.4947C48.075 94.4947 47.6842 94.5963 47.3345 94.7994C46.9848 95.0026 46.7083 95.2851 46.5051 95.6482C46.302 96.0112 46.2004 96.4298 46.2004 96.9049C46.2004 97.3801 46.2998 97.8014 46.4985 98.1684C46.6972 98.5358 46.9737 98.8206 47.3278 99.0238C47.682 99.2269 48.075 99.3285 48.5069 99.3285Z" fill="black"/>
<path d="M57.6531 100.417C56.9709 100.417 56.3575 100.266 55.8135 99.963C55.2695 99.6605 54.8437 99.2442 54.5373 98.7129C54.2304 98.1817 54.0771 97.5794 54.0771 96.9055C54.0771 96.2316 54.2304 95.6293 54.5373 95.0981C54.8437 94.5668 55.2695 94.1522 55.8135 93.8541C56.3575 93.556 56.9709 93.4072 57.6531 93.4072C58.3354 93.4072 58.9465 93.556 59.4866 93.8541C60.0262 94.1522 60.4498 94.5668 60.7562 95.0981C61.0626 95.6293 61.2164 96.2316 61.2164 96.9055C61.2164 97.5794 61.0631 98.1817 60.7562 98.7129C60.4492 99.2442 60.0262 99.661 59.4866 99.963C58.9471 100.266 58.3359 100.417 57.6531 100.417ZM57.6531 99.3285C58.0939 99.3285 58.4886 99.2269 58.8388 99.0238C59.1886 98.8212 59.4628 98.5358 59.6615 98.1684C59.8602 97.8014 59.9596 97.3801 59.9596 96.9049C59.9596 96.4298 59.8602 96.009 59.6615 95.6415C59.4628 95.2746 59.1886 94.9915 58.8388 94.7928C58.4891 94.594 58.0939 94.4947 57.6531 94.4947C57.2124 94.4947 56.8177 94.594 56.4674 94.7928C56.1177 94.9915 55.8413 95.2746 55.6381 95.6415C55.4349 96.009 55.3334 96.4298 55.3334 96.9049C55.3334 97.3801 55.4349 97.8014 55.6381 98.1684C55.8407 98.5358 56.1177 98.8206 56.4674 99.0238C56.8177 99.2269 57.2129 99.3285 57.6531 99.3285Z" fill="black"/>
<path d="M70.325 90.7251V100.339H69.1332V99.2504C68.8568 99.6306 68.5071 99.9199 68.0835 100.119C67.66 100.317 67.1937 100.417 66.6841 100.417C66.0191 100.417 65.4229 100.27 64.8961 99.9759C64.3693 99.6823 63.9569 99.2698 63.6588 98.7386C63.3607 98.2074 63.2119 97.5962 63.2119 96.9051C63.2119 96.214 63.3607 95.605 63.6588 95.0782C63.9569 94.5514 64.3693 94.1412 64.8961 93.8476C65.4229 93.5539 66.0191 93.4068 66.6841 93.4068C67.1765 93.4068 67.63 93.4995 68.0447 93.6855C68.4593 93.8714 68.8046 94.1457 69.081 94.5081V90.7251H70.325ZM66.7879 99.3287C67.2198 99.3287 67.6128 99.2271 67.9669 99.0239C68.3211 98.8213 68.5975 98.536 68.7963 98.1685C68.995 97.8016 69.0944 97.3803 69.0944 96.9051C69.0944 96.4299 68.995 96.0091 68.7963 95.6417C68.5975 95.2747 68.3211 94.9916 67.9669 94.7929C67.6128 94.5942 67.2198 94.4948 66.7879 94.4948C66.3471 94.4948 65.9519 94.5942 65.6022 94.7929C65.2525 94.9916 64.976 95.2747 64.7729 95.6417C64.5697 96.0091 64.4681 96.4299 64.4681 96.9051C64.4681 97.3803 64.5697 97.8016 64.7729 98.1685C64.9755 98.536 65.2525 98.8207 65.6022 99.0239C65.9519 99.2271 66.3471 99.3287 66.7879 99.3287Z" fill="black"/>
</g>
<path d="M11.5 123C11.5 116.096 17.0964 110.5 24 110.5H90C96.9036 110.5 102.5 116.096 102.5 123V245.5H11.5V123Z" fill="white" stroke="black" stroke-width="3"/>
<rect x="47" y="118" width="15" height="2" rx="1" fill="black"/>
<rect x="63" y="118" width="2" height="2" rx="1" fill="black"/>
<rect x="13" y="241" width="88" height="11" fill="white"/>
<path d="M41.2006 187V180.66H38.6406V179.95H44.5906V180.66H42.0306V187H41.2006ZM46.8045 187.09C46.0378 187.09 45.4312 186.867 44.9845 186.42C44.5378 185.967 44.3145 185.353 44.3145 184.58C44.3145 184.08 44.4145 183.64 44.6145 183.26C44.8145 182.873 45.0878 182.577 45.4345 182.37C45.7878 182.157 46.1945 182.05 46.6545 182.05C47.3145 182.05 47.8312 182.263 48.2045 182.69C48.5778 183.11 48.7645 183.69 48.7645 184.43V184.74H45.1045C45.1312 185.293 45.2912 185.717 45.5845 186.01C45.8778 186.297 46.2845 186.44 46.8045 186.44C47.0978 186.44 47.3778 186.397 47.6445 186.31C47.9112 186.217 48.1645 186.067 48.4045 185.86L48.6845 186.43C48.4645 186.637 48.1845 186.8 47.8445 186.92C47.5045 187.033 47.1578 187.09 46.8045 187.09ZM46.6745 182.65C46.2145 182.65 45.8512 182.793 45.5845 183.08C45.3178 183.367 45.1612 183.743 45.1145 184.21H48.0645C48.0445 183.717 47.9145 183.333 47.6745 183.06C47.4412 182.787 47.1078 182.65 46.6745 182.65ZM51.4268 187.09C50.9334 187.09 50.5601 186.947 50.3068 186.66C50.0601 186.367 49.9368 185.943 49.9368 185.39V179.95H50.7468V185.33C50.7468 186.043 51.0301 186.4 51.5968 186.4C51.7634 186.4 51.9134 186.38 52.0468 186.34L52.0268 187.02C51.8201 187.067 51.6201 187.09 51.4268 187.09ZM55.0369 187.09C54.2702 187.09 53.6636 186.867 53.2169 186.42C52.7702 185.967 52.5469 185.353 52.5469 184.58C52.5469 184.08 52.6469 183.64 52.8469 183.26C53.0469 182.873 53.3202 182.577 53.6669 182.37C54.0202 182.157 54.4269 182.05 54.8869 182.05C55.5469 182.05 56.0636 182.263 56.4369 182.69C56.8102 183.11 56.9969 183.69 56.9969 184.43V184.74H53.3369C53.3636 185.293 53.5236 185.717 53.8169 186.01C54.1102 186.297 54.5169 186.44 55.0369 186.44C55.3302 186.44 55.6102 186.397 55.8769 186.31C56.1436 186.217 56.3969 186.067 56.6369 185.86L56.9169 186.43C56.6969 186.637 56.4169 186.8 56.0769 186.92C55.7369 187.033 55.3902 187.09 55.0369 187.09ZM54.9069 182.65C54.4469 182.65 54.0836 182.793 53.8169 183.08C53.5502 183.367 53.3936 183.743 53.3469 184.21H56.2969C56.2769 183.717 56.1469 183.333 55.9069 183.06C55.6736 182.787 55.3402 182.65 54.9069 182.65ZM54.5969 181.49L55.6269 179.47H56.4969L55.1769 181.49H54.5969ZM58.4292 187V182.77H57.4692V182.14H58.4292V181.97C58.4292 181.323 58.5892 180.833 58.9092 180.5C59.2358 180.167 59.7358 179.98 60.4092 179.94L60.7992 179.92L60.8692 180.54L60.4092 180.57C59.9958 180.603 59.6958 180.727 59.5092 180.94C59.3292 181.153 59.2392 181.463 59.2392 181.87V182.14H60.6392V182.77H59.2392V187H58.4292ZM63.3825 187.09C62.9092 187.09 62.4992 186.987 62.1525 186.78C61.8059 186.573 61.5359 186.283 61.3425 185.91C61.1559 185.53 61.0625 185.083 61.0625 184.57C61.0625 184.057 61.1559 183.613 61.3425 183.24C61.5359 182.86 61.8059 182.567 62.1525 182.36C62.4992 182.153 62.9092 182.05 63.3825 182.05C63.8492 182.05 64.2559 182.153 64.6025 182.36C64.9559 182.567 65.2259 182.86 65.4125 183.24C65.6059 183.613 65.7025 184.057 65.7025 184.57C65.7025 185.083 65.6059 185.53 65.4125 185.91C65.2259 186.283 64.9559 186.573 64.6025 186.78C64.2559 186.987 63.8492 187.09 63.3825 187.09ZM63.3825 186.44C63.8359 186.44 64.1992 186.28 64.4725 185.96C64.7459 185.633 64.8825 185.17 64.8825 184.57C64.8825 183.963 64.7459 183.5 64.4725 183.18C64.1992 182.86 63.8359 182.7 63.3825 182.7C62.9225 182.7 62.5559 182.86 62.2825 183.18C62.0159 183.5 61.8825 183.963 61.8825 184.57C61.8825 185.17 62.0159 185.633 62.2825 185.96C62.5559 186.28 62.9225 186.44 63.3825 186.44ZM66.9192 187V182.14H67.7092V182.97C67.8692 182.663 68.0958 182.433 68.3892 182.28C68.6825 182.127 69.0125 182.05 69.3792 182.05C70.5325 182.05 71.1092 182.69 71.1092 183.97V187H70.2992V184.02C70.2992 183.567 70.2092 183.237 70.0292 183.03C69.8558 182.817 69.5758 182.71 69.1892 182.71C68.7425 182.71 68.3858 182.85 68.1192 183.13C67.8592 183.403 67.7292 183.77 67.7292 184.23V187H66.9192ZM74.6228 187.09C74.1494 187.09 73.7394 186.987 73.3928 186.78C73.0461 186.573 72.7761 186.283 72.5828 185.91C72.3961 185.53 72.3028 185.083 72.3028 184.57C72.3028 184.057 72.3961 183.613 72.5828 183.24C72.7761 182.86 73.0461 182.567 73.3928 182.36C73.7394 182.153 74.1494 182.05 74.6228 182.05C75.0894 182.05 75.4961 182.153 75.8428 182.36C76.1961 182.567 76.4661 182.86 76.6528 183.24C76.8461 183.613 76.9428 184.057 76.9428 184.57C76.9428 185.083 76.8461 185.53 76.6528 185.91C76.4661 186.283 76.1961 186.573 75.8428 186.78C75.4961 186.987 75.0894 187.09 74.6228 187.09ZM74.6228 186.44C75.0761 186.44 75.4394 186.28 75.7128 185.96C75.9861 185.633 76.1228 185.17 76.1228 184.57C76.1228 183.963 75.9861 183.5 75.7128 183.18C75.4394 182.86 75.0761 182.7 74.6228 182.7C74.1628 182.7 73.7961 182.86 73.5228 183.18C73.2561 183.5 73.1228 183.963 73.1228 184.57C73.1228 185.17 73.2561 185.633 73.5228 185.96C73.7961 186.28 74.1628 186.44 74.6228 186.44ZM47.7161 199.1C47.3627 199.1 47.0461 199.033 46.7661 198.9C46.4927 198.76 46.2761 198.573 46.1161 198.34C45.9627 198.107 45.8861 197.843 45.8861 197.55C45.8861 197.19 45.9794 196.907 46.1661 196.7C46.3527 196.487 46.6561 196.333 47.0761 196.24C47.4961 196.147 48.0594 196.1 48.7661 196.1H49.1161V195.89C49.1161 195.557 49.0427 195.317 48.8961 195.17C48.7494 195.023 48.5027 194.95 48.1561 194.95C47.8827 194.95 47.6027 194.993 47.3161 195.08C47.0294 195.16 46.7394 195.287 46.4461 195.46L46.0861 194.61C46.2594 194.49 46.4627 194.387 46.6961 194.3C46.9361 194.207 47.1861 194.137 47.4461 194.09C47.7127 194.037 47.9627 194.01 48.1961 194.01C48.9094 194.01 49.4394 194.177 49.7861 194.51C50.1327 194.837 50.3061 195.347 50.3061 196.04V199H49.1361V198.22C49.0227 198.493 48.8427 198.71 48.5961 198.87C48.3494 199.023 48.0561 199.1 47.7161 199.1ZM47.9761 198.24C48.3027 198.24 48.5727 198.127 48.7861 197.9C49.0061 197.673 49.1161 197.387 49.1161 197.04V196.82H48.7761C48.1494 196.82 47.7127 196.87 47.4661 196.97C47.2261 197.063 47.1061 197.237 47.1061 197.49C47.1061 197.71 47.1827 197.89 47.3361 198.03C47.4894 198.17 47.7027 198.24 47.9761 198.24ZM51.5348 193.06V191.84H52.9348V193.06H51.5348ZM50.4748 200.93L50.3848 200.02L50.8448 199.97C51.3581 199.91 51.6148 199.61 51.6148 199.07V194.11H52.8648V198.91C52.8648 199.563 52.7148 200.043 52.4148 200.35C52.1148 200.663 51.6115 200.847 50.9048 200.9L50.4748 200.93ZM56.5727 199.1C56.0194 199.1 55.5427 198.997 55.1427 198.79C54.7427 198.583 54.4327 198.29 54.2127 197.91C53.9994 197.53 53.8927 197.08 53.8927 196.56C53.8927 196.053 53.996 195.61 54.2027 195.23C54.416 194.85 54.706 194.553 55.0727 194.34C55.446 194.12 55.8694 194.01 56.3427 194.01C57.036 194.01 57.5827 194.23 57.9827 194.67C58.3894 195.11 58.5927 195.71 58.5927 196.47V196.84H55.0927C55.186 197.713 55.686 198.15 56.5927 198.15C56.866 198.15 57.1394 198.11 57.4127 198.03C57.686 197.943 57.936 197.81 58.1627 197.63L58.5127 198.47C58.2794 198.663 57.986 198.817 57.6327 198.93C57.2794 199.043 56.926 199.1 56.5727 199.1ZM56.3927 194.86C56.026 194.86 55.7294 194.973 55.5027 195.2C55.276 195.427 55.1394 195.733 55.0927 196.12H57.5527C57.526 195.713 57.4127 195.403 57.2127 195.19C57.0194 194.97 56.746 194.86 56.3927 194.86ZM59.5826 199V194.11H60.8026V194.87C60.9693 194.59 61.1926 194.377 61.4726 194.23C61.7593 194.083 62.0793 194.01 62.4326 194.01C63.586 194.01 64.1626 194.68 64.1626 196.02V199H62.9126V196.08C62.9126 195.7 62.8393 195.423 62.6926 195.25C62.5526 195.077 62.3326 194.99 62.0326 194.99C61.666 194.99 61.3726 195.107 61.1526 195.34C60.9393 195.567 60.8326 195.87 60.8326 196.25V199H59.5826ZM67.6622 199.1C67.1556 199.1 66.7156 198.997 66.3422 198.79C65.9689 198.583 65.6789 198.29 65.4722 197.91C65.2656 197.523 65.1622 197.07 65.1622 196.55C65.1622 196.03 65.2656 195.58 65.4722 195.2C65.6789 194.82 65.9689 194.527 66.3422 194.32C66.7156 194.113 67.1556 194.01 67.6622 194.01C68.1689 194.01 68.6089 194.113 68.9822 194.32C69.3556 194.527 69.6456 194.82 69.8522 195.2C70.0589 195.58 70.1622 196.03 70.1622 196.55C70.1622 197.07 70.0589 197.523 69.8522 197.91C69.6456 198.29 69.3556 198.583 68.9822 198.79C68.6089 198.997 68.1689 199.1 67.6622 199.1ZM67.6622 198.15C68.0356 198.15 68.3356 198.017 68.5622 197.75C68.7889 197.477 68.9022 197.077 68.9022 196.55C68.9022 196.017 68.7889 195.62 68.5622 195.36C68.3356 195.093 68.0356 194.96 67.6622 194.96C67.2889 194.96 66.9889 195.093 66.7622 195.36C66.5356 195.62 66.4222 196.017 66.4222 196.55C66.4222 197.077 66.5356 197.477 66.7622 197.75C66.9889 198.017 67.2889 198.15 67.6622 198.15Z" fill="black" fill-opacity="0.7"/>
<defs>
<filter id="filter0_d" x="32" y="75" width="51" height="51" filterUnits="userSpaceOnUse" color-interpolation-filters="sRGB">
<feFlood flood-opacity="0" result="BackgroundImageFix"/>
<feColorMatrix in="SourceAlpha" type="matrix" values="0 0 0 0 0 0 0 0 0 0 0 0 0 0 0 0 0 0 127 0"/>
<feOffset dy="4"/>
<feGaussianBlur stdDeviation="2"/>
<feColorMatrix type="matrix" values="0 0 0 0 0 0 0 0 0 0 0 0 0 0 0 0 0 0 0.25 0"/>
<feBlend mode="normal" in2="BackgroundImageFix" result="effect1_dropShadow"/>
<feBlend mode="normal" in="SourceGraphic" in2="effect1_dropShadow" result="shape"/>
</filter>
<linearGradient id="paint0_linear" x1="42.0377" y1="71.9075" x2="69.4281" y2="112.993" gradientUnits="userSpaceOnUse">
<stop stop-color="white"/>
<stop offset="1" stop-color="white" stop-opacity="0"/>
</linearGradient>
</defs>
</svg>
