<svg xmlns="http://www.w3.org/2000/svg" xmlns:xlink="http://www.w3.org/1999/xlink" id="Layer_1" x="0" y="0" version="1.1" viewBox="0 0 113 252" xml:space="preserve" style="enable-background:new 0 0 113 252"><style type="text/css">.st0{fill:none;stroke:#000;stroke-width:2}.st1{fill-opacity:.7}.st2{filter:url(#a)}.st3{fill:#fff;stroke:url(#SVGID_1_)}.st4{stroke:#000;stroke-width:3}.st4,.st5{fill:#fff}</style><filter id="a" width="51" height="51" x="32" y="75" color-interpolation-filters="sRGB" filterUnits="userSpaceOnUse"><feFlood flood-opacity="0" result="BackgroundImageFix"/><feColorMatrix in="SourceAlpha" type="matrix" values="0 0 0 0 0 0 0 0 0 0 0 0 0 0 0 0 0 0 127 0"/><feOffset dy="4"/><feGaussianBlur stdDeviation="2"/><feColorMatrix type="matrix" values="0 0 0 0 0 0 0 0 0 0 0 0 0 0 0 0 0 0 0.25 0"/><feBlend in2="BackgroundImageFix" mode="normal" result="effect1_dropShadow"/><feBlend in="SourceGraphic" in2="effect1_dropShadow" mode="normal" result="shape"/></filter><path d="M112,7v127c0,8.3-6.7,15-15,15H16c-8.3,0-15-6.7-15-15V7" class="st0"/><path d="M41.2,40v-6.3h-2.6V33h6v0.7H42V40H41.2z M46.8,40.1c-0.8,0-1.4-0.2-1.8-0.7c-0.4-0.5-0.7-1.1-0.7-1.8	c0-0.5,0.1-0.9,0.3-1.3c0.2-0.4,0.5-0.7,0.8-0.9c0.4-0.2,0.8-0.3,1.2-0.3c0.7,0,1.2,0.2,1.5,0.6c0.4,0.4,0.6,1,0.6,1.7v0.3h-3.7	c0,0.6,0.2,1,0.5,1.3c0.3,0.3,0.7,0.4,1.2,0.4c0.3,0,0.6,0,0.8-0.1c0.3-0.1,0.5-0.2,0.8-0.5l0.3,0.6c-0.2,0.2-0.5,0.4-0.8,0.5	C47.5,40,47.2,40.1,46.8,40.1z M46.7,35.7c-0.5,0-0.8,0.1-1.1,0.4s-0.4,0.7-0.5,1.1h3c0-0.5-0.2-0.9-0.4-1.2	C47.4,35.8,47.1,35.7,46.7,35.7z M51.4,40.1c-0.5,0-0.9-0.1-1.1-0.4c-0.2-0.3-0.4-0.7-0.4-1.3V33h0.8v5.4c0,0.7,0.3,1.1,0.8,1.1	c0.2,0,0.3,0,0.5-0.1l0,0.7C51.8,40.1,51.6,40.1,51.4,40.1z M55,40.1c-0.8,0-1.4-0.2-1.8-0.7c-0.4-0.5-0.7-1.1-0.7-1.8	c0-0.5,0.1-0.9,0.3-1.3c0.2-0.4,0.5-0.7,0.8-0.9c0.4-0.2,0.8-0.3,1.2-0.3c0.7,0,1.2,0.2,1.5,0.6c0.4,0.4,0.6,1,0.6,1.7v0.3h-3.7	c0,0.6,0.2,1,0.5,1.3c0.3,0.3,0.7,0.4,1.2,0.4c0.3,0,0.6,0,0.8-0.1c0.3-0.1,0.5-0.2,0.8-0.5l0.3,0.6c-0.2,0.2-0.5,0.4-0.8,0.5	C55.7,40,55.4,40.1,55,40.1z M54.9,35.7c-0.5,0-0.8,0.1-1.1,0.4s-0.4,0.7-0.5,1.1h3c0-0.5-0.2-0.9-0.4-1.2	C55.7,35.8,55.3,35.7,54.9,35.7z M54.6,34.5l1-2h0.9l-1.3,2H54.6z M58.4,40v-4.2h-1v-0.6h1V35c0-0.6,0.2-1.1,0.5-1.5	c0.3-0.3,0.8-0.5,1.5-0.6l0.4,0l0.1,0.6l-0.5,0c-0.4,0-0.7,0.2-0.9,0.4c-0.2,0.2-0.3,0.5-0.3,0.9v0.3h1.4v0.6h-1.4V40L58.4,40z M63.4,40.1c-0.5,0-0.9-0.1-1.2-0.3c-0.3-0.2-0.6-0.5-0.8-0.9c-0.2-0.4-0.3-0.8-0.3-1.3s0.1-1,0.3-1.3c0.2-0.4,0.5-0.7,0.8-0.9	c0.3-0.2,0.8-0.3,1.2-0.3c0.5,0,0.9,0.1,1.2,0.3c0.4,0.2,0.6,0.5,0.8,0.9c0.2,0.4,0.3,0.8,0.3,1.3s-0.1,1-0.3,1.3	c-0.2,0.4-0.5,0.7-0.8,0.9C64.3,40,63.8,40.1,63.4,40.1z M63.4,39.4c0.5,0,0.8-0.2,1.1-0.5c0.3-0.3,0.4-0.8,0.4-1.4	c0-0.6-0.1-1.1-0.4-1.4c-0.3-0.3-0.6-0.5-1.1-0.5c-0.5,0-0.8,0.2-1.1,0.5c-0.3,0.3-0.4,0.8-0.4,1.4c0,0.6,0.1,1.1,0.4,1.4	C62.6,39.3,62.9,39.4,63.4,39.4z M66.9,40v-4.9h0.8V36c0.2-0.3,0.4-0.5,0.7-0.7c0.3-0.2,0.6-0.2,1-0.2c1.2,0,1.7,0.6,1.7,1.9v3h-0.8	v-3c0-0.5-0.1-0.8-0.3-1c-0.2-0.2-0.5-0.3-0.8-0.3c-0.4,0-0.8,0.1-1.1,0.4c-0.3,0.3-0.4,0.6-0.4,1.1V40L66.9,40z M74.6,40.1	c-0.5,0-0.9-0.1-1.2-0.3c-0.3-0.2-0.6-0.5-0.8-0.9c-0.2-0.4-0.3-0.8-0.3-1.3s0.1-1,0.3-1.3c0.2-0.4,0.5-0.7,0.8-0.9	c0.3-0.2,0.8-0.3,1.2-0.3c0.5,0,0.9,0.1,1.2,0.3c0.4,0.2,0.6,0.5,0.8,0.9c0.2,0.4,0.3,0.8,0.3,1.3s-0.1,1-0.3,1.3	c-0.2,0.4-0.5,0.7-0.8,0.9C75.5,40,75.1,40.1,74.6,40.1z M74.6,39.4c0.5,0,0.8-0.2,1.1-0.5c0.3-0.3,0.4-0.8,0.4-1.4	c0-0.6-0.1-1.1-0.4-1.4c-0.3-0.3-0.6-0.5-1.1-0.5c-0.5,0-0.8,0.2-1.1,0.5c-0.3,0.3-0.4,0.8-0.4,1.4c0,0.6,0.1,1.1,0.4,1.4	C73.8,39.3,74.2,39.4,74.6,39.4z M43.7,53.8v-6.7h1.2v0.8c0.1-0.3,0.3-0.5,0.6-0.6c0.3-0.2,0.6-0.2,1-0.2c0.4,0,0.8,0.1,1.1,0.3	c0.3,0.2,0.6,0.5,0.8,0.9c0.2,0.4,0.3,0.8,0.3,1.3c0,0.5-0.1,1-0.3,1.4c-0.2,0.4-0.4,0.7-0.8,0.9s-0.7,0.3-1.1,0.3	c-0.3,0-0.7-0.1-0.9-0.2c-0.3-0.2-0.5-0.4-0.6-0.6v2.5H43.7z M46.2,51.1c0.4,0,0.7-0.1,0.9-0.4c0.2-0.3,0.3-0.7,0.3-1.2	c0-0.5-0.1-0.9-0.3-1.2c-0.2-0.3-0.5-0.4-0.9-0.4c-0.4,0-0.7,0.1-0.9,0.4c-0.2,0.3-0.3,0.7-0.3,1.2c0,0.5,0.1,0.9,0.3,1.2	C45.5,51,45.8,51.1,46.2,51.1z M49.7,52v-4.9h1.2V48c0.2-0.6,0.8-0.9,1.5-1l0.4,0l0.1,1.1l-0.7,0.1c-0.8,0.1-1.2,0.5-1.2,1.3V52	L49.7,52z M55.8,52.1c-0.5,0-0.9-0.1-1.3-0.3s-0.7-0.5-0.9-0.9c-0.2-0.4-0.3-0.8-0.3-1.4s0.1-1,0.3-1.3s0.5-0.7,0.9-0.9	s0.8-0.3,1.3-0.3s0.9,0.1,1.3,0.3s0.7,0.5,0.9,0.9s0.3,0.8,0.3,1.3s-0.1,1-0.3,1.4c-0.2,0.4-0.5,0.7-0.9,0.9S56.3,52.1,55.8,52.1z M55.8,51.1c0.4,0,0.7-0.1,0.9-0.4c0.2-0.3,0.3-0.7,0.3-1.2c0-0.5-0.1-0.9-0.3-1.2c-0.2-0.3-0.5-0.4-0.9-0.4s-0.7,0.1-0.9,0.4	c-0.2,0.3-0.3,0.7-0.3,1.2c0,0.5,0.1,0.9,0.3,1.2C55.1,51,55.4,51.1,55.8,51.1z M59.3,53.8v-6.7h1.2v0.8c0.1-0.3,0.3-0.5,0.6-0.6	c0.3-0.2,0.6-0.2,1-0.2c0.4,0,0.8,0.1,1.1,0.3c0.3,0.2,0.6,0.5,0.8,0.9c0.2,0.4,0.3,0.8,0.3,1.3c0,0.5-0.1,1-0.3,1.4	c-0.2,0.4-0.4,0.7-0.8,0.9s-0.7,0.3-1.1,0.3c-0.3,0-0.7-0.1-0.9-0.2c-0.3-0.2-0.5-0.4-0.6-0.6v2.5H59.3z M61.8,51.1	c0.4,0,0.7-0.1,0.9-0.4c0.2-0.3,0.3-0.7,0.3-1.2c0-0.5-0.1-0.9-0.3-1.2c-0.2-0.3-0.5-0.4-0.9-0.4c-0.4,0-0.7,0.1-0.9,0.4	c-0.2,0.3-0.3,0.7-0.3,1.2c0,0.5,0.1,0.9,0.3,1.2C61.1,51,61.4,51.1,61.8,51.1z M65.2,46.1v-1.2h1.4v1.2H65.2z M65.3,52v-4.9h1.2V52	H65.3z M70.1,52.1c-0.5,0-0.9-0.1-1.3-0.3c-0.4-0.2-0.7-0.5-0.9-0.9c-0.2-0.4-0.3-0.8-0.3-1.4s0.1-1,0.3-1.3	c0.2-0.4,0.5-0.7,0.9-0.9c0.4-0.2,0.8-0.3,1.3-0.3c0.5,0,0.9,0.1,1.3,0.3c0.4,0.2,0.7,0.5,0.9,0.9c0.2,0.4,0.3,0.8,0.3,1.3	s-0.1,1-0.3,1.4c-0.2,0.4-0.5,0.7-0.9,0.9C71,52,70.6,52.1,70.1,52.1z M70.1,51.1c0.4,0,0.7-0.1,0.9-0.4c0.2-0.3,0.3-0.7,0.3-1.2	c0-0.5-0.1-0.9-0.3-1.2c-0.2-0.3-0.5-0.4-0.9-0.4c-0.4,0-0.7,0.1-0.9,0.4c-0.2,0.3-0.3,0.7-0.3,1.2c0,0.5,0.1,0.9,0.3,1.2	C69.4,51,69.7,51.1,70.1,51.1z" class="st1"/><g class="st2"><linearGradient id="SVGID_1_" x1="41.392" x2="68.782" y1="179.662" y2="138.577" gradientTransform="matrix(1 0 0 -1 0 252)" gradientUnits="userSpaceOnUse"><stop offset="0" style="stop-color:#fff"/><stop offset="1" style="stop-color:#fff;stop-opacity:0"/></linearGradient><path d="M57.5,75.5L57.5,75.5c11.6,0,21,9.4,21,21l0,0c0,11.6-9.4,21-21,21l0,0c-11.6,0-21-9.4-21-21l0,0 C36.5,84.9,45.9,75.5,57.5,75.5z" class="st3"/><g><path d="M57.6,78.8c-4.8,0-9.2,1.9-12.6,5.2c-3.4,3.4-5.2,7.9-5.2,12.6c0,4.8,1.9,9.2,5.2,12.6s7.9,5.2,12.6,5.2 c4.8,0,9.2-1.9,12.6-5.2c3.4-3.4,5.2-7.9,5.2-12.6c0-4.8-1.9-9.2-5.2-12.6C66.9,80.7,62.4,78.8,57.6,78.8z M57.6,115.6 c-5.1,0-9.8-2-13.4-5.6c-3.6-3.6-5.6-8.4-5.6-13.4c0-5.1,2-9.8,5.6-13.4c3.6-3.6,8.4-5.6,13.4-5.6s9.8,2,13.4,5.6 c3.6,3.6,5.6,8.4,5.6,13.4s-2,9.8-5.6,13.4C67.5,113.7,62.7,115.6,57.6,115.6z"/><path d="M48.6,93.4c0.7,0,1.3,0.1,1.8,0.4c0.5,0.3,0.9,0.7,1.2,1.2c0.3,0.5,0.4,1.1,0.4,1.8s-0.1,1.3-0.4,1.8s-0.7,0.9-1.2,1.2 c-0.5,0.3-1.1,0.4-1.8,0.4c-0.5,0-0.9-0.1-1.4-0.3c-0.4-0.2-0.8-0.5-1-0.8v3.5H45v-9.4h1.2v1.1c0.3-0.4,0.6-0.7,1-0.9 C47.6,93.5,48.1,93.4,48.6,93.4z M48.5,99.3c0.4,0,0.8-0.1,1.2-0.3c0.3-0.2,0.6-0.5,0.8-0.9c0.2-0.4,0.3-0.8,0.3-1.3 c0-0.5-0.1-0.9-0.3-1.3c-0.2-0.4-0.5-0.7-0.8-0.8c-0.3-0.2-0.7-0.3-1.2-0.3c-0.4,0-0.8,0.1-1.2,0.3c-0.3,0.2-0.6,0.5-0.8,0.8 c-0.2,0.4-0.3,0.8-0.3,1.3c0,0.5,0.1,0.9,0.3,1.3c0.2,0.4,0.5,0.7,0.8,0.9C47.7,99.2,48.1,99.3,48.5,99.3z"/><path d="M57.7,100.4c-0.7,0-1.3-0.2-1.8-0.5c-0.5-0.3-1-0.7-1.3-1.3c-0.3-0.5-0.5-1.1-0.5-1.8s0.2-1.3,0.5-1.8 c0.3-0.5,0.7-0.9,1.3-1.2s1.2-0.4,1.8-0.4c0.7,0,1.3,0.1,1.8,0.4c0.5,0.3,1,0.7,1.3,1.2c0.3,0.5,0.5,1.1,0.5,1.8s-0.2,1.3-0.5,1.8 c-0.3,0.5-0.7,0.9-1.3,1.3C58.9,100.3,58.3,100.4,57.7,100.4z M57.7,99.3c0.4,0,0.8-0.1,1.2-0.3c0.3-0.2,0.6-0.5,0.8-0.9 c0.2-0.4,0.3-0.8,0.3-1.3c0-0.5-0.1-0.9-0.3-1.3c-0.2-0.4-0.5-0.7-0.8-0.8c-0.3-0.2-0.7-0.3-1.2-0.3c-0.4,0-0.8,0.1-1.2,0.3 c-0.3,0.2-0.6,0.5-0.8,0.8c-0.2,0.4-0.3,0.8-0.3,1.3c0,0.5,0.1,0.9,0.3,1.3c0.2,0.4,0.5,0.7,0.8,0.9 C56.8,99.2,57.2,99.3,57.7,99.3z"/><path d="M70.3,90.7v9.6h-1.2v-1.1c-0.3,0.4-0.6,0.7-1,0.9c-0.4,0.2-0.9,0.3-1.4,0.3c-0.7,0-1.3-0.1-1.8-0.4 c-0.5-0.3-0.9-0.7-1.2-1.2s-0.4-1.1-0.4-1.8s0.1-1.3,0.4-1.8s0.7-0.9,1.2-1.2c0.5-0.3,1.1-0.4,1.8-0.4c0.5,0,0.9,0.1,1.4,0.3 c0.4,0.2,0.8,0.5,1,0.8v-3.8H70.3z M66.8,99.3c0.4,0,0.8-0.1,1.2-0.3c0.4-0.2,0.6-0.5,0.8-0.9c0.2-0.4,0.3-0.8,0.3-1.3 S69,96,68.8,95.6c-0.2-0.4-0.5-0.7-0.8-0.8c-0.4-0.2-0.7-0.3-1.2-0.3c-0.4,0-0.8,0.1-1.2,0.3s-0.6,0.5-0.8,0.8 c-0.2,0.4-0.3,0.8-0.3,1.3s0.1,0.9,0.3,1.3c0.2,0.4,0.5,0.7,0.8,0.9S66.3,99.3,66.8,99.3z"/></g></g><path d="M11.5,123c0-6.9,5.6-12.5,12.5-12.5h66c6.9,0,12.5,5.6,12.5,12.5v122.5h-91V123z" class="st4"/><path d="M48,118h13c0.6,0,1,0.4,1,1l0,0c0,0.6-0.4,1-1,1H48c-0.6,0-1-0.4-1-1l0,0C47,118.4,47.4,118,48,118z"/><path d="M64,118L64,118c0.6,0,1,0.4,1,1l0,0c0,0.6-0.4,1-1,1l0,0c-0.6,0-1-0.4-1-1l0,0C63,118.4,63.4,118,64,118z"/><path d="M13,241h88v11H13V241z" class="st5"/><path d="M41.2,187v-6.3h-2.6v-0.7h6v0.7H42v6.3H41.2z M46.8,187.1c-0.8,0-1.4-0.2-1.8-0.7c-0.4-0.5-0.7-1.1-0.7-1.8	c0-0.5,0.1-0.9,0.3-1.3c0.2-0.4,0.5-0.7,0.8-0.9c0.4-0.2,0.8-0.3,1.2-0.3c0.7,0,1.2,0.2,1.5,0.6c0.4,0.4,0.6,1,0.6,1.7v0.3h-3.7	c0,0.6,0.2,1,0.5,1.3c0.3,0.3,0.7,0.4,1.2,0.4c0.3,0,0.6,0,0.8-0.1c0.3-0.1,0.5-0.2,0.8-0.4l0.3,0.6c-0.2,0.2-0.5,0.4-0.8,0.5	C47.5,187,47.2,187.1,46.8,187.1z M46.7,182.6c-0.5,0-0.8,0.1-1.1,0.4s-0.4,0.7-0.5,1.1h3c0-0.5-0.2-0.9-0.4-1.1	C47.4,182.8,47.1,182.6,46.7,182.6z M51.4,187.1c-0.5,0-0.9-0.1-1.1-0.4c-0.2-0.3-0.4-0.7-0.4-1.3v-5.4h0.8v5.4	c0,0.7,0.3,1.1,0.8,1.1c0.2,0,0.3,0,0.5-0.1l0,0.7C51.8,187.1,51.6,187.1,51.4,187.1L51.4,187.1z M55,187.1c-0.8,0-1.4-0.2-1.8-0.7	c-0.4-0.5-0.7-1.1-0.7-1.8c0-0.5,0.1-0.9,0.3-1.3c0.2-0.4,0.5-0.7,0.8-0.9c0.4-0.2,0.8-0.3,1.2-0.3c0.7,0,1.2,0.2,1.5,0.6	c0.4,0.4,0.6,1,0.6,1.7v0.3h-3.7c0,0.6,0.2,1,0.5,1.3c0.3,0.3,0.7,0.4,1.2,0.4c0.3,0,0.6,0,0.8-0.1c0.3-0.1,0.5-0.2,0.8-0.4l0.3,0.6	c-0.2,0.2-0.5,0.4-0.8,0.5C55.7,187,55.4,187.1,55,187.1z M54.9,182.6c-0.5,0-0.8,0.1-1.1,0.4s-0.4,0.7-0.5,1.1h3	c0-0.5-0.2-0.9-0.4-1.1C55.7,182.8,55.3,182.6,54.9,182.6z M54.6,181.5l1-2h0.9l-1.3,2H54.6z M58.4,187v-4.2h-1v-0.6h1V182	c0-0.6,0.2-1.1,0.5-1.5c0.3-0.3,0.8-0.5,1.5-0.6l0.4,0l0.1,0.6l-0.5,0c-0.4,0-0.7,0.2-0.9,0.4c-0.2,0.2-0.3,0.5-0.3,0.9v0.3h1.4v0.6	h-1.4v4.2L58.4,187z M63.4,187.1c-0.5,0-0.9-0.1-1.2-0.3c-0.3-0.2-0.6-0.5-0.8-0.9c-0.2-0.4-0.3-0.8-0.3-1.3s0.1-1,0.3-1.3	c0.2-0.4,0.5-0.7,0.8-0.9c0.3-0.2,0.8-0.3,1.2-0.3c0.5,0,0.9,0.1,1.2,0.3c0.4,0.2,0.6,0.5,0.8,0.9c0.2,0.4,0.3,0.8,0.3,1.3	s-0.1,1-0.3,1.3c-0.2,0.4-0.5,0.7-0.8,0.9C64.3,187,63.8,187.1,63.4,187.1z M63.4,186.4c0.5,0,0.8-0.2,1.1-0.5	c0.3-0.3,0.4-0.8,0.4-1.4c0-0.6-0.1-1.1-0.4-1.4c-0.3-0.3-0.6-0.5-1.1-0.5c-0.5,0-0.8,0.2-1.1,0.5c-0.3,0.3-0.4,0.8-0.4,1.4	c0,0.6,0.1,1.1,0.4,1.4C62.6,186.3,62.9,186.4,63.4,186.4z M66.9,187v-4.9h0.8v0.8c0.2-0.3,0.4-0.5,0.7-0.7c0.3-0.2,0.6-0.2,1-0.2	c1.2,0,1.7,0.6,1.7,1.9v3h-0.8v-3c0-0.5-0.1-0.8-0.3-1c-0.2-0.2-0.5-0.3-0.8-0.3c-0.4,0-0.8,0.1-1.1,0.4c-0.3,0.3-0.4,0.6-0.4,1.1	v2.8H66.9z M74.6,187.1c-0.5,0-0.9-0.1-1.2-0.3c-0.3-0.2-0.6-0.5-0.8-0.9c-0.2-0.4-0.3-0.8-0.3-1.3s0.1-1,0.3-1.3	c0.2-0.4,0.5-0.7,0.8-0.9c0.3-0.2,0.8-0.3,1.2-0.3c0.5,0,0.9,0.1,1.2,0.3c0.4,0.2,0.6,0.5,0.8,0.9c0.2,0.4,0.3,0.8,0.3,1.3	s-0.1,1-0.3,1.3c-0.2,0.4-0.5,0.7-0.8,0.9C75.5,187,75.1,187.1,74.6,187.1z M74.6,186.4c0.5,0,0.8-0.2,1.1-0.5	c0.3-0.3,0.4-0.8,0.4-1.4c0-0.6-0.1-1.1-0.4-1.4c-0.3-0.3-0.6-0.5-1.1-0.5c-0.5,0-0.8,0.2-1.1,0.5c-0.3,0.3-0.4,0.8-0.4,1.4	c0,0.6,0.1,1.1,0.4,1.4C73.8,186.3,74.2,186.4,74.6,186.4z M47.7,199.1c-0.4,0-0.7-0.1-1-0.2c-0.3-0.1-0.5-0.3-0.7-0.6	c-0.2-0.2-0.2-0.5-0.2-0.8c0-0.4,0.1-0.6,0.3-0.9c0.2-0.2,0.5-0.4,0.9-0.5s1-0.1,1.7-0.1h0.3v-0.2c0-0.3-0.1-0.6-0.2-0.7	c-0.1-0.1-0.4-0.2-0.7-0.2c-0.3,0-0.6,0-0.8,0.1c-0.3,0.1-0.6,0.2-0.9,0.4l-0.4-0.9c0.2-0.1,0.4-0.2,0.6-0.3	c0.2-0.1,0.5-0.2,0.8-0.2c0.3-0.1,0.5-0.1,0.8-0.1c0.7,0,1.2,0.2,1.6,0.5c0.3,0.3,0.5,0.8,0.5,1.5v3h-1.2v-0.8	c-0.1,0.3-0.3,0.5-0.5,0.6C48.3,199,48.1,199.1,47.7,199.1L47.7,199.1z M48,198.2c0.3,0,0.6-0.1,0.8-0.3c0.2-0.2,0.3-0.5,0.3-0.9	v-0.2h-0.3c-0.6,0-1.1,0.1-1.3,0.1c-0.2,0.1-0.4,0.3-0.4,0.5c0,0.2,0.1,0.4,0.2,0.5C47.5,198.2,47.7,198.2,48,198.2z M51.5,193.1	v-1.2h1.4v1.2H51.5z M50.5,200.9l-0.1-0.9l0.5-0.1c0.5-0.1,0.8-0.4,0.8-0.9v-5h1.2v4.8c0,0.7-0.2,1.1-0.5,1.4	c-0.3,0.3-0.8,0.5-1.5,0.6L50.5,200.9z M56.6,199.1c-0.6,0-1-0.1-1.4-0.3s-0.7-0.5-0.9-0.9c-0.2-0.4-0.3-0.8-0.3-1.4	c0-0.5,0.1-0.9,0.3-1.3c0.2-0.4,0.5-0.7,0.9-0.9c0.4-0.2,0.8-0.3,1.3-0.3c0.7,0,1.2,0.2,1.6,0.7c0.4,0.4,0.6,1,0.6,1.8v0.4h-3.5	c0.1,0.9,0.6,1.3,1.5,1.3c0.3,0,0.5,0,0.8-0.1c0.3-0.1,0.5-0.2,0.8-0.4l0.3,0.8c-0.2,0.2-0.5,0.3-0.9,0.5S56.9,199.1,56.6,199.1z M56.4,194.9c-0.4,0-0.7,0.1-0.9,0.3s-0.4,0.5-0.4,0.9h2.5c0-0.4-0.1-0.7-0.3-0.9C57,195,56.7,194.9,56.4,194.9z M59.6,199v-4.9h1.2	v0.8c0.2-0.3,0.4-0.5,0.7-0.6c0.3-0.1,0.6-0.2,1-0.2c1.2,0,1.7,0.7,1.7,2v3h-1.2v-2.9c0-0.4-0.1-0.7-0.2-0.8	c-0.1-0.2-0.4-0.3-0.7-0.3c-0.4,0-0.7,0.1-0.9,0.4c-0.2,0.2-0.3,0.5-0.3,0.9v2.8H59.6z M67.7,199.1c-0.5,0-0.9-0.1-1.3-0.3	c-0.4-0.2-0.7-0.5-0.9-0.9c-0.2-0.4-0.3-0.8-0.3-1.4s0.1-1,0.3-1.4c0.2-0.4,0.5-0.7,0.9-0.9c0.4-0.2,0.8-0.3,1.3-0.3	c0.5,0,0.9,0.1,1.3,0.3c0.4,0.2,0.7,0.5,0.9,0.9c0.2,0.4,0.3,0.8,0.3,1.4s-0.1,1-0.3,1.4c-0.2,0.4-0.5,0.7-0.9,0.9	C68.6,199,68.2,199.1,67.7,199.1z M67.7,198.1c0.4,0,0.7-0.1,0.9-0.4c0.2-0.3,0.3-0.7,0.3-1.2c0-0.5-0.1-0.9-0.3-1.2	c-0.2-0.3-0.5-0.4-0.9-0.4c-0.4,0-0.7,0.1-0.9,0.4c-0.2,0.3-0.3,0.7-0.3,1.2c0,0.5,0.1,0.9,0.3,1.2C67,198,67.3,198.1,67.7,198.1z" class="st1"/></svg>