<svg fill="none" height="481" viewBox="0 0 271 481" width="271" xmlns="http://www.w3.org/2000/svg" xmlns:xlink="http://www.w3.org/1999/xlink"><clipPath id="a"><path d="m0 0h270.339v480.797h-270.339z"/></clipPath><g clip-path="url(#a)"><path d="m238.507 0c1.628.498693 3.256 1.01621 4.893 1.48667 16.25 4.66702 26.92 19.02563 26.93 36.49873.028 88.4476.009 176.8856.009 265.3336 0 46.021.009 92.041 0 138.062 0 23.797-15.582 39.407-39.35 39.416-63.88.009-127.759.009-191.6298 0-23.7774-.009-39.3592-15.629-39.3592-39.425 0-133.678 0-267.366 0-401.0437 0-21.3309 9.87037-34.09934 30.5991-39.660239.4422-.122321.828-.442238 1.2326-.668061zm-163.8065 14.9232c-12.2321 0-24.3983-.0188-36.574.0094-13.794.0282-23.3162 9.5034-23.3162 23.2598-.0095 134.9016-.0095 269.8026 0 404.7036 0 13.493 9.5504 23.072 23.0245 23.081 64.8022.029 129.6042.019 194.4062 0 13.766 0 23.25-9.522 23.269-23.307.028-22.535.009-45.07.009-67.605 0-112.206 0-224.422-.009-336.628 0-14.0763-9.447-23.4762-23.542-23.5138-5.787-.0188-11.583 0-17.379 0-6.361 0-12.722 0-19.468 0 0 3.5567.141 6.5112-.028 9.4469-.678 11.7993-8.713 21.0298-21.783 20.7664-25.819-.5175-51.648-.1412-77.4761-.16-10.3597-.0094-17.6519-5.6268-19.769-15.7606-.9033-4.4035-.8845-8.9953-1.3644-14.2927zm15.2714.2446c0 2.6911-.0377 5.1563.0094 7.6121.1129 6.0502 1.4678 7.3769 7.4992 7.3769 23.3065.0095 46.6045 0 69.9115 0 11.95 0 13.38 2.2959 12.937-13.6058-.009-.4234-.263-.8469-.451-1.3926-29.865.0094-59.646.0094-89.9061.0094z" fill="#000"/><g fill="#fff"><path d="m74.7006 14.9232c.4799 5.3069.4517 9.8986 1.3738 14.2928 2.1171 10.1338 9.4093 15.7512 19.769 15.7606 25.8286.0094 51.6576-.3576 77.4766.1599 13.079.2635 21.105-8.967 21.782-20.7663.17-2.9357.028-5.8902.028-9.447h19.468c5.787 0 11.583-.0094 17.379 0 14.105.0377 23.542 9.4282 23.542 23.5139.01 112.2059.01 224.4219.01 336.6279 0 22.535.019 45.07-.01 67.606-.018 13.784-9.503 23.306-23.269 23.306-64.802.019-129.604.019-194.4056 0-13.4648-.009-23.0246-9.588-23.0246-23.081-.0188-134.901-.0188-269.802 0-404.7035 0-13.7564 9.5222-23.2316 23.3163-23.2598 12.1662-.0377 24.3324-.0095 36.5645-.0095z"/><path d="m89.9718 15.1677h89.8962c.179.5552.433.9692.452 1.3926.442 15.9017-.988 13.6059-12.938 13.6059-23.307 0-46.604 0-69.911 0-6.0313 0-7.3863-1.3362-7.4992-7.3769-.0376-2.4653 0-4.9305 0-7.6216z"/></g></g></svg>