<svg xmlns="http://www.w3.org/2000/svg" xmlns:xlink="http://www.w3.org/1999/xlink" width="137" height="138" fill="none" viewBox="0 0 137 138"><linearGradient id="a" x1="19.449" x2="106.356" y1="-8.947" y2="121.414" gradientUnits="userSpaceOnUse"><stop offset="0" stop-color="#fff"/><stop offset="1" stop-color="#fff" stop-opacity="0"/></linearGradient><rect width="135.435" height="135.435" x=".792" y="1.365" fill="#fff" stroke="url(#a)" rx="67.718"/><g fill="#000"><path d="m68.9785 12.9442c-15.1155 0-29.3397 5.8968-40.0255 16.5826-10.6858 10.6875-16.5826 24.9117-16.5826 40.0254s5.8968 29.3397 16.5826 40.0258c10.6858 10.685 24.9118 16.582 40.0255 16.582s29.3397-5.897 40.0255-16.582c10.686-10.6861 16.583-24.9121 16.583-40.0258s-5.897-29.3397-16.583-40.0254c-10.6858-10.6858-24.9101-16.5826-40.0255-16.5826zm0 116.8288c-16.0771 0-31.2172-6.258-42.5776-17.643-11.3832-11.361-17.64113-26.4989-17.64113-42.5778s6.25793-31.2172 17.64293-42.5776c11.3603-11.3832 26.4987-17.6411 42.5758-17.6411s31.2175 6.2579 42.5775 17.6429c11.385 11.385 17.643 26.4987 17.643 42.5776s-6.258 31.217-17.643 42.578c-11.36 11.383-26.4986 17.641-42.5775 17.641z"/><path d="m40.3023 59.2695c2.1101 0 4.0017.4668 5.6732 1.3985 1.6714.9317 2.9801 2.2333 3.9259 3.9048s1.4178 3.6036 1.4178 5.7964-.472 4.132-1.4178 5.8176c-.9458 1.6855-2.2545 2.9942-3.9259 3.9259-1.6715.9317-3.5631 1.3985-5.6732 1.3985-1.5622 0-2.9942-.3012-4.2958-.9053-1.3016-.6024-2.4041-1.4795-3.3094-2.6314v11.2635h-3.9471v-29.7624h3.7815v3.4539c.8771-1.2065 1.9867-2.1171 3.3306-2.7335 1.3421-.6182 2.8216-.9265 4.4402-.9265zm-.3293 18.7878c1.3984 0 2.6507-.3223 3.7621-.967 1.1096-.6428 1.9868-1.5482 2.6314-2.7141.6429-1.1642.9669-2.5011.9669-4.0087 0-1.5077-.3223-2.8428-.9669-4.0088-.6446-1.1642-1.5218-2.0624-2.6314-2.693-1.1096-.6305-2.3637-.9458-3.7621-.9458-1.3703 0-2.6103.3223-3.7199.967-1.1096.6446-1.9867 1.5411-2.6314 2.693-.6446 1.1519-.9669 2.4799-.9669 3.9876 0 1.5076.3153 2.8445.9458 4.0087.6306 1.1659 1.5077 2.0695 2.6314 2.7141 1.1237.6447 2.3707.967 3.741.967z"/><path d="m68.9937 81.5094c-2.1646 0-4.1108-.4791-5.8369-1.439s-3.077-2.2808-4.0492-3.9664c-.974-1.6856-1.4601-3.5966-1.4601-5.7348s.4861-4.0492 1.4601-5.7348c.9722-1.6855 2.3231-3.0012 4.0492-3.947s3.6723-1.4179 5.8369-1.4179c2.1647 0 4.1038.4721 5.8176 1.4179 1.712.9458 3.0558 2.2615 4.0281 3.947.9722 1.6856 1.4601 3.5966 1.4601 5.7348s-.4861 4.0492-1.4601 5.7348-2.3161 3.0083-4.0281 3.9664c-1.712.9599-3.6512 1.439-5.8176 1.439zm0-3.4521c1.3985 0 2.6508-.3223 3.7622-.967 1.1096-.6428 1.9797-1.5482 2.6102-2.7141.6305-1.1642.9458-2.5011.9458-4.0087 0-1.5077-.3153-2.8428-.9458-4.0088-.6305-1.1642-1.5006-2.0624-2.6102-2.693-1.1097-.6305-2.3637-.9458-3.7622-.9458-1.3984 0-2.6507.3153-3.7621.9458-1.1096.6306-1.9867 1.5288-2.6314 2.693-.6446 1.166-.9669 2.5011-.9669 4.0088 0 1.5076.3223 2.8445.9669 4.0087.6429 1.1659 1.5218 2.0695 2.6314 2.7141 1.1114.6447 2.3654.967 3.7621.967z"/><path d="m109.199 50.7593v30.5039h-3.781v-3.4539c-.878 1.2065-1.987 2.1241-3.331 2.7546-1.344.6306-2.8233.9459-4.4402.9459-2.11 0-4.0017-.465-5.6731-1.3985-1.6715-.9317-2.9802-2.2404-3.926-3.9259-.9458-1.6856-1.4178-3.6248-1.4178-5.8176s.472-4.125 1.4178-5.7964c.9458-1.6715 2.2545-2.9731 3.926-3.9048 1.6714-.9318 3.5631-1.3985 5.6731-1.3985 1.5623 0 3.0012.2941 4.3172.8842 1.315.59 2.411 1.4601 3.288 2.6102v-12.0032zm-11.2228 27.2983c1.3702 0 2.6168-.3223 3.7408-.9669 1.124-.6429 2.001-1.5482 2.632-2.7142.63-1.1642.945-2.501.945-4.0087s-.315-2.8427-.945-4.0087c-.631-1.1642-1.508-2.0625-2.632-2.693-1.124-.6306-2.3706-.9459-3.7408-.9459-1.3985 0-2.6526.3153-3.7622.9459-1.1096.6305-1.9867 1.5288-2.6314 2.693-.6446 1.166-.9669 2.501-.9669 4.0087s.3223 2.8445.9669 4.0087c.6429 1.166 1.5218 2.0695 2.6314 2.7142 1.1096.6446 2.3637.9669 3.7622.9669z"/></g></svg>