<svg xmlns="http://www.w3.org/2000/svg" width="28" height="34" fill="none" viewBox="0 0 28 34"><path fill="currentColor" d="M25.2 0H2.8V2.83333H25.2V0ZM2.8 34H25.2V31.1667H2.8V34ZM25.2 5.66667H2.8C1.26 5.66667 0 6.94167 0 8.5V25.5C0 27.0583 1.26 28.3333 2.8 28.3333H25.2C26.74 28.3333 28 27.0583 28 25.5V8.5C28 6.94167 26.74 5.66667 25.2 5.66667ZM14 9.5625C15.736 9.5625 17.15 10.9933 17.15 12.75C17.15 14.5067 15.736 15.9375 14 15.9375C12.264 15.9375 10.85 14.5067 10.85 12.75C10.85 10.9933 12.264 9.5625 14 9.5625ZM21 24.0833H7V21.9583C7 19.5925 11.662 18.4167 14 18.4167C16.338 18.4167 21 19.5925 21 21.9583V24.0833Z"/></svg>