<svg width="28" height="28" viewBox="0 0 28 28" fill="none" xmlns="http://www.w3.org/2000/svg">
<path d="M12.833 20.9999H15.1663V18.6666H12.833V20.9999ZM13.9997 2.33325C7.55967 2.33325 2.33301 7.55992 2.33301 13.9999C2.33301 20.4399 7.55967 25.6666 13.9997 25.6666C20.4397 25.6666 25.6663 20.4399 25.6663 13.9999C25.6663 7.55992 20.4397 2.33325 13.9997 2.33325ZM13.9997 23.3333C8.85468 23.3333 4.66634 19.1449 4.66634 13.9999C4.66634 8.85492 8.85468 4.66659 13.9997 4.66659C19.1447 4.66659 23.333 8.85492 23.333 13.9999C23.333 19.1449 19.1447 23.3333 13.9997 23.3333ZM13.9997 6.99992C11.4213 6.99992 9.33301 9.08825 9.33301 11.6666H11.6663C11.6663 10.3833 12.7163 9.33325 13.9997 9.33325C15.283 9.33325 16.333 10.3833 16.333 11.6666C16.333 13.9999 12.833 13.7083 12.833 17.4999H15.1663C15.1663 14.8749 18.6663 14.5833 18.6663 11.6666C18.6663 9.08825 16.578 6.99992 13.9997 6.99992Z" fill="white"/>
</svg>
