<svg width="26" height="24" viewBox="0 0 26 24" fill="none" xmlns="http://www.w3.org/2000/svg">
<path fill-rule="evenodd" clip-rule="evenodd" d="M24.9736 9.78443L13.9313 0.416679C13.276 -0.138893 12.315 -0.138893 11.6596 0.416679L0.6174 9.78443C0.0690507 10.2516 -0.13842 11.0063 0.0940332 11.6882C0.326486 12.37 0.951727 12.8408 1.67127 12.8758V22.2435C1.67127 23.2136 2.45766 24 3.42773 24H22.1632C23.1333 24 23.9197 23.2136 23.9197 22.2435V12.8816C24.6392 12.8467 25.2645 12.3759 25.4969 11.694C25.7294 11.0122 25.5219 10.2575 24.9736 9.79029V9.78443ZM12.2103 22.2495H11.0393V16.9802H14.5522V22.2495H12.2103ZM22.1634 11.1253V22.2495H16.3085V16.9801C16.3085 16.0101 15.5221 15.2237 14.5521 15.2237H11.0391C10.0691 15.2237 9.28269 16.0101 9.28269 16.9801V22.2495H3.42784V11.1253H1.75336L12.7956 1.75752L23.8378 11.1253H22.1634Z" fill="white"/>
</svg>
