<svg width="26" height="26" viewBox="0 0 26 26" fill="none" xmlns="http://www.w3.org/2000/svg">
<path d="M20.2765 6.11597C20.4998 5.89296 20.8462 5.86839 21.0966 6.04212L21.1856 6.11657L25.5 10.4366C25.7228 10.6597 25.7476 11.0058 25.5743 11.2562L25.5 11.3452L21.1856 15.6653C20.9347 15.9165 20.5277 15.9167 20.2765 15.6658C20.0532 15.4428 20.0282 15.0965 20.2016 14.8458L20.2759 14.7567L24.1356 10.8896L20.2759 7.02511C20.0529 6.8018 20.0283 6.45538 20.202 6.20495L20.2765 6.11597Z" fill="currentColor"/>
<path d="M14.5442 10.248H24.1871C24.5421 10.248 24.8299 10.5359 24.8299 10.8909C24.8299 11.2459 24.5421 11.5338 24.1871 11.5338H14.5442C14.1892 11.5338 13.9014 11.2459 13.9014 10.8909C13.9014 10.5359 14.1892 10.248 14.5442 10.248Z" fill="currentColor"/>
<path fill-rule="evenodd" clip-rule="evenodd" d="M1.58632 0.0432039C1.48787 0.0195298 1.38697 0.00756836 1.28571 0.00756836C0.575634 0.00756836 0 0.583202 0 1.29328V21.791C0 22.3853 0.407294 22.9021 0.985108 23.0411L9.10701 24.9942C9.20546 25.0178 9.30637 25.0298 9.40762 25.0298C10.1177 25.0298 10.6933 24.4542 10.6933 23.7441V3.24636C10.6933 2.65207 10.286 2.13523 9.70823 1.99628L1.58632 0.0432039ZM1.28571 21.791V1.29328L9.40762 3.24636V23.7441L1.28571 21.791Z" fill="currentColor"/>
<path d="M16.2648 13.7034C16.5804 13.7034 16.8429 13.9308 16.8973 14.2307L16.9076 14.3462V19.1957C16.9076 20.29 16.5199 21.078 15.8486 21.5432C15.4678 21.807 15.0514 21.9329 14.6855 21.9635L14.5072 21.971H10.0608C9.70579 21.971 9.41797 21.6832 9.41797 21.3282C9.41797 21.0126 9.64538 20.7501 9.94527 20.6957L10.0608 20.6853H14.5072C15.0714 20.6853 15.5575 20.373 15.616 19.3994L15.6219 19.1957V14.3462C15.6219 13.9912 15.9097 13.7034 16.2648 13.7034Z" fill="currentColor"/>
<path d="M16.2649 8.26758C16.5805 8.26758 16.843 8.04017 16.8974 7.74028L16.9078 7.62472V2.77522C16.9078 1.68091 16.52 0.892914 15.8487 0.427777C15.4679 0.163945 15.0515 0.0380611 14.6856 0.00747871L14.5073 -6.77109e-05L1.4329 -6.77109e-05C1.07786 -6.77109e-05 0.790039 0.287749 0.790039 0.642789C0.790039 0.958381 1.01745 1.22086 1.31734 1.27529L1.4329 1.28565L14.5073 1.28565C15.0715 1.28565 15.5576 1.59799 15.6161 2.57158L15.622 2.77522V7.62472C15.622 7.97976 15.9099 8.26758 16.2649 8.26758Z" fill="currentColor"/>
</svg>
