<svg xmlns="http://www.w3.org/2000/svg" width="27" height="27" fill="none" viewBox="0 0 27 27"><path fill="currentColor" d="M14.625 3.375H12.375V14.625H14.625V3.375ZM20.0588 5.81625L18.4613 7.41375C20.2388 8.8425 21.375 11.0363 21.375 13.5C21.375 17.8538 17.8538 21.375 13.5 21.375C9.14625 21.375 5.625 17.8538 5.625 13.5C5.625 11.0363 6.76125 8.8425 8.5275 7.4025L6.94125 5.81625C4.75875 7.6725 3.375 10.4175 3.375 13.5C3.375 19.0912 7.90875 23.625 13.5 23.625C19.0912 23.625 23.625 19.0912 23.625 13.5C23.625 10.4175 22.2412 7.6725 20.0588 5.81625Z"/></svg>