<svg width="27" height="27" viewBox="0 0 27 27" fill="none" xmlns="http://www.w3.org/2000/svg">
<path d="M2.70271 7.2025C2.70271 6.0506 2.70215 4.89814 2.70271 3.74624C2.70328 3.05285 3.04693 2.70362 3.73086 2.70306C6.04405 2.7025 8.3578 2.7025 10.671 2.70306C11.3555 2.70306 11.6997 3.05229 11.6997 3.74512C11.7003 6.04947 11.7003 8.35327 11.6997 10.6576C11.6997 11.3628 11.3572 11.7008 10.6434 11.7008C8.34879 11.7014 6.05419 11.7014 3.75903 11.7008C3.0351 11.7008 2.70215 11.3634 2.70215 10.6306C2.70215 9.4877 2.70271 8.34482 2.70271 7.2025ZM4.52239 4.51455C4.52239 6.32097 4.52239 8.10373 4.52239 9.87861C6.32573 9.87861 8.10879 9.87861 9.88566 9.87861C9.88566 8.07951 9.88566 6.30295 9.88566 4.51455C8.09358 4.51455 6.31728 4.51455 4.52239 4.51455Z" fill="currentColor"/>
<path d="M19.7854 11.7008C18.6237 11.7008 17.4626 11.7019 16.3009 11.7002C15.6536 11.6997 15.2993 11.3414 15.2993 10.6875C15.2987 8.36453 15.2987 6.04159 15.2993 3.71921C15.2993 3.05173 15.6519 2.70362 16.3263 2.70306C18.6395 2.7025 20.9532 2.7025 23.2664 2.70306C23.9526 2.70306 24.2962 3.05116 24.2968 3.74399C24.2974 6.04835 24.2974 8.35214 24.2968 10.6565C24.2968 11.3623 23.9543 11.7002 23.2416 11.7008C22.0895 11.7008 20.9374 11.7008 19.7854 11.7008ZM17.1201 4.51342C17.1201 6.32322 17.1201 8.10655 17.1201 9.88706C18.9178 9.88706 20.6941 9.88706 22.4811 9.88706C22.4811 8.09022 22.4811 6.30745 22.4811 4.51342C20.6879 4.51342 18.9116 4.51342 17.1201 4.51342Z" fill="currentColor"/>
<path d="M11.7005 19.8124C11.7005 20.9643 11.7011 22.1167 11.7005 23.2686C11.7 23.944 11.3529 24.2966 10.6865 24.2972C8.36371 24.2977 6.04094 24.2977 3.71817 24.2972C3.05171 24.2972 2.70355 23.944 2.70355 23.2686C2.70298 20.9553 2.70298 18.6419 2.70355 16.3285C2.70355 15.6441 3.05284 15.3 3.74578 15.3C6.04996 15.2994 8.35413 15.2994 10.6583 15.3C11.3636 15.3 11.7005 15.6425 11.7011 16.3567C11.7011 17.5086 11.7005 18.6605 11.7005 19.8124ZM9.88819 17.1194C8.08315 17.1194 6.30009 17.1194 4.52435 17.1194C4.52435 18.9224 4.52435 20.7052 4.52435 22.4834C6.32319 22.4834 8.09949 22.4834 9.88819 22.4834C9.88819 20.6922 9.88819 18.9156 9.88819 17.1194Z" fill="currentColor"/>
<path d="M1.80341 1.80297C1.80341 2.67266 1.80453 3.51307 1.80228 4.35291C1.80172 4.47401 1.80284 4.5985 1.77524 4.7151C1.66876 5.15727 1.25694 5.44397 0.81075 5.39891C0.369069 5.35385 0.0113301 4.98716 0.00794985 4.53203C-0.00106405 3.31536 -0.00162742 2.09812 0.00794985 0.88145C0.0113301 0.389148 0.394421 0.0106272 0.887931 0.0066843C2.09523 -0.00176482 3.30309 -0.00120154 4.51039 0.00612103C5.01573 0.00950067 5.40108 0.409426 5.4022 0.900601C5.40333 1.40304 5.01123 1.79733 4.48729 1.80071C3.60787 1.80747 2.72789 1.80297 1.80341 1.80297Z" fill="currentColor"/>
<path d="M25.1968 1.80291C24.2836 1.80291 23.4053 1.80798 22.527 1.80122C21.8622 1.79615 21.4239 1.18218 21.6588 0.585671C21.8025 0.220106 22.083 0.0100043 22.4768 0.00718795C23.6937 -0.00182444 24.9106 -0.00295099 26.1275 0.00718795C26.6171 0.0111309 26.9911 0.399227 26.9945 0.894909C27.0018 2.10257 27.003 3.30967 26.9939 4.51733C26.9906 5.02033 26.5838 5.40392 26.092 5.4011C25.6007 5.39829 25.2058 5.01301 25.2002 4.50606C25.1917 3.71973 25.1979 2.9334 25.1979 2.14707C25.1968 2.04624 25.1968 1.94429 25.1968 1.80291Z" fill="currentColor"/>
<path d="M17.0993 17.0992C17.0993 17.9971 17.1004 18.8487 17.0987 19.7004C17.0976 20.2941 16.728 20.7002 16.1951 20.698C15.6638 20.6957 15.3005 20.2896 15.2999 19.6919C15.2988 18.5592 15.2982 17.427 15.2999 16.2943C15.301 15.6617 15.6599 15.3012 16.2909 15.3001C17.4328 15.2984 18.5748 15.2984 19.7167 15.3001C20.2908 15.3012 20.6936 15.6707 20.6975 16.1918C20.7015 16.7252 20.2953 17.0969 19.7032 17.0986C18.9359 17.1003 18.168 17.0992 17.4007 17.0992C17.3094 17.0992 17.2187 17.0992 17.0993 17.0992Z" fill="currentColor"/>
<path d="M22.4978 22.498C22.4978 22.155 22.4978 21.839 22.4978 21.523C22.4978 20.9428 22.4899 20.3621 22.5006 19.7819C22.5096 19.2789 22.9119 18.8959 23.4037 18.8987C23.8843 18.9021 24.2888 19.2783 24.2927 19.7667C24.3034 20.9834 24.3023 22.2006 24.2933 23.4173C24.2899 23.9102 23.9085 24.2904 23.415 24.2937C22.2077 24.3028 20.9998 24.3016 19.7925 24.2943C19.286 24.2909 18.9007 23.8933 18.8984 23.4021C18.8962 22.8996 19.2877 22.5037 19.8111 22.4991C20.5976 22.4924 21.3835 22.4975 22.1699 22.4975C22.2708 22.498 22.3711 22.498 22.4978 22.498Z" fill="currentColor"/>
<path d="M1.80257 25.1974C2.68368 25.1974 3.5338 25.1951 4.38336 25.1996C4.52139 25.2002 4.66674 25.2115 4.79687 25.2537C5.20644 25.3861 5.45489 25.7995 5.39573 26.2209C5.33883 26.6298 4.998 26.9835 4.58505 26.9886C3.33099 27.0038 2.07637 27.0049 0.822308 26.9886C0.375557 26.983 0.0121842 26.5921 0.00824062 26.1386C-0.00246338 24.9124 -0.00302675 23.6861 0.00824062 22.4599C0.0127476 21.9726 0.42288 21.5986 0.903433 21.5986C1.39469 21.5986 1.79525 21.9833 1.80032 22.488C1.80877 23.3769 1.80257 24.2657 1.80257 25.1974Z" fill="currentColor"/>
<path d="M25.197 25.1972C25.197 24.2751 25.1891 23.3874 25.1998 22.5003C25.2072 21.8446 25.8517 21.4154 26.4398 21.6677C26.7885 21.8176 26.9908 22.0936 26.993 22.476C27.0009 23.6927 27.0026 24.91 26.9925 26.1266C26.9885 26.6054 26.6105 26.9884 26.1333 26.9924C24.9075 27.0031 23.681 27.0036 22.4545 26.9918C21.9684 26.9873 21.5954 26.5733 21.5977 26.0923C21.5999 25.6011 21.9853 25.2051 22.4917 25.1995C23.2776 25.191 24.0641 25.1972 24.8506 25.1972C24.9525 25.1972 25.0545 25.1972 25.197 25.1972Z" fill="currentColor"/>
<path d="M19.8162 17.9991C20.1154 17.9991 20.4151 17.9924 20.7142 18.0008C21.2077 18.0149 21.5863 18.3839 21.5953 18.875C21.6066 19.4924 21.6072 20.1103 21.5948 20.7271C21.5852 21.2166 21.2032 21.5872 20.708 21.5951C20.1002 21.6041 19.4917 21.6047 18.8838 21.5945C18.3903 21.5861 18.0117 21.2126 18.0027 20.7209C17.9915 20.1035 17.9909 19.4856 18.0033 18.8688C18.0129 18.3794 18.3948 18.0132 18.89 18.0003C19.1982 17.9929 19.5075 17.9991 19.8162 17.9991Z" fill="currentColor"/>
</svg>
