<svg width="29" height="29" viewBox="0 0 29 29" fill="none" xmlns="http://www.w3.org/2000/svg">
<path d="M20.7951 10.8751L15.5026 2.94842C15.273 2.61008 14.8863 2.44092 14.4997 2.44092C14.113 2.44092 13.7263 2.61008 13.4968 2.9605L8.20426 10.8751H2.41634C1.75176 10.8751 1.20801 11.4188 1.20801 12.0834C1.20801 12.1922 1.22009 12.3009 1.25634 12.4097L4.32551 23.6109C4.60342 24.6259 5.53384 25.3751 6.64551 25.3751H22.3538C23.4655 25.3751 24.3959 24.6259 24.6859 23.6109L27.7551 12.4097L27.7913 12.0834C27.7913 11.4188 27.2476 10.8751 26.583 10.8751H20.7951ZM10.8747 10.8751L14.4997 5.55842L18.1247 10.8751H10.8747ZM14.4997 20.5418C13.1705 20.5418 12.083 19.4543 12.083 18.1251C12.083 16.7959 13.1705 15.7084 14.4997 15.7084C15.8288 15.7084 16.9163 16.7959 16.9163 18.1251C16.9163 19.4543 15.8288 20.5418 14.4997 20.5418Z" fill="white"/>
</svg>
