<svg xmlns="http://www.w3.org/2000/svg" width="22" height="25" fill="none" viewBox="0 0 22 25"><path fill="currentColor" fill-rule="evenodd" d="M16.9832 6.41053C16.9832 2.87009 14.1131 0 10.5726 0C7.0322 0 4.16211 2.87009 4.16211 6.41053C4.16211 9.95096 7.0322 12.8211 10.5726 12.8211C14.1131 12.8211 16.9832 9.95096 16.9832 6.41053ZM5.38323 6.4106C5.38323 3.54454 7.70664 1.22113 10.5727 1.22113C13.4388 1.22113 15.7622 3.54454 15.7622 6.4106C15.7622 9.27667 13.4388 11.6001 10.5727 11.6001C7.70664 11.6001 5.38323 9.27667 5.38323 6.4106Z" clip-rule="evenodd"/><path fill="currentColor" fill-rule="evenodd" d="M21.1352 23.0452C20.3899 17.2058 16.869 14.2861 10.5725 14.2861C4.27605 14.2861 0.755155 17.2058 0.00982604 23.0452C0.00328195 23.0965 0 23.1481 0 23.1998C0 23.8742 0.54666 24.4209 1.221 24.4209H19.924C19.9757 24.4209 20.0273 24.4176 20.0786 24.411C20.7475 24.3257 21.2206 23.7141 21.1352 23.0452ZM1.26755 22.8638C2.01759 17.8796 4.99939 15.5074 10.5723 15.5074C16.1453 15.5074 19.1271 17.8795 19.8771 22.8638L19.9238 23.2L1.22028 23.1988L1.26755 22.8638Z" clip-rule="evenodd"/></svg>