<svg xmlns="http://www.w3.org/2000/svg" width="29" height="29" fill="none" viewBox="0 0 29 29"><path fill="currentColor" d="M14.5003 13.2917C13.1712 13.2917 12.0837 14.3792 12.0837 15.7083C12.0837 17.0375 13.1712 18.125 14.5003 18.125C15.8295 18.125 16.917 17.0375 16.917 15.7083C16.917 14.3792 15.8295 13.2917 14.5003 13.2917ZM21.7503 15.7083C21.7503 11.7088 18.4999 8.45833 14.5003 8.45833C10.5007 8.45833 7.25033 11.7088 7.25033 15.7083C7.25033 18.3908 8.71241 20.7229 10.8753 21.9796L12.0837 19.8771C10.6457 19.0313 9.66699 17.4967 9.66699 15.7083C9.66699 13.0379 11.8299 10.875 14.5003 10.875C17.1707 10.875 19.3337 13.0379 19.3337 15.7083C19.3337 17.4967 18.3549 19.0313 16.917 19.8771L18.1253 21.9796C20.2882 20.7229 21.7503 18.3908 21.7503 15.7083ZM14.5003 3.625C7.83033 3.625 2.41699 9.03833 2.41699 15.7083C2.41699 20.1792 4.84574 24.07 8.44658 26.1604L9.65491 24.07C6.77908 22.3904 4.83366 19.285 4.83366 15.7083C4.83366 10.3675 9.15949 6.04167 14.5003 6.04167C19.8412 6.04167 24.167 10.3675 24.167 15.7083C24.167 19.285 22.2216 22.3904 19.3337 24.07L20.542 26.1604C24.1549 24.07 26.5837 20.1792 26.5837 15.7083C26.5837 9.03833 21.1703 3.625 14.5003 3.625Z"/></svg>